<svg width="120" height="119" viewBox="0 0 120 119" fill="none" xmlns="http://www.w3.org/2000/svg">

    <g id="css">
        <path d="M22.1325 101.154L13.71 7.4375H106.29L97.8562 101.139L59.9437 111.562L22.1325 101.154Z" fill="#1572B6"/>
        <path d="M60 103.597L90.6375 95.174L97.845 15.1019H60V103.597Z" fill="#33A9DC"/>
        <path d="M60 49.054H75.3375L76.395 37.2842H60V25.7896H89.0625L88.785 28.8724L85.9387 60.5487H60V49.054Z" fill="white"/>
        <path d="M60.0712 78.9045L60.0187 78.9193L47.1112 75.4609L46.2862 66.2942H34.65L36.2737 84.3413L60.015 90.8788L60.0712 90.864V78.9045Z" fill="#EBEBEB"/>
        <path d="M74.3512 60.0615L72.9563 75.4534L60.03 78.9119V90.8714L83.79 84.3412L83.9663 82.4001L85.98 60.0615H74.3512Z" fill="white"/>
        <path d="M60.0413 25.7896V37.2842H32.0438L31.8113 34.6997L31.2825 28.8724L31.005 25.7896H60.0413ZM60 49.054V60.5487H47.2538L47.0213 57.9642L46.4963 52.1369L46.2188 49.054H60Z" fill="#EBEBEB"/>
    </g>

    <g id="git">
        <path d="M103.02 47.8219L57.1758 1.98038C54.5372 -0.6598 50.2552 -0.6598 47.6134 1.98038L38.0937 11.5001L50.1699 23.5763C52.9762 22.6281 56.1943 23.2642 58.4313 25.5012C60.6789 27.7525 61.3106 30.9981 60.3393 33.8134L71.9775 45.452C74.7932 44.482 78.0421 45.1095 80.291 47.3621C83.434 50.5039 83.434 55.596 80.291 58.7399C77.1471 61.8841 72.055 61.8841 68.9095 58.7399C66.5454 56.3733 65.9613 52.9013 67.1582 49.9888L56.3046 39.1352L56.3034 67.6973C57.0902 68.0863 57.8088 68.6002 58.4313 69.2189C61.5743 72.3607 61.5743 77.4532 58.4313 80.5995C55.2874 83.7422 50.1929 83.7422 47.0535 80.5995C43.9105 77.4532 43.9105 72.3611 47.0535 69.2193C47.8067 68.4658 48.7019 67.869 49.6871 67.4635V38.6352C48.7004 38.2324 47.8048 37.6353 47.0535 36.8793C44.6722 34.5013 44.0996 31.0071 45.3198 28.0831L33.4154 16.1775L1.98105 47.6099C-0.660352 50.2525 -0.660352 54.5349 1.98105 57.1755L47.8259 103.018C50.4652 105.658 54.7464 105.658 57.3891 103.018L103.019 57.3884C105.66 54.747 105.66 50.4621 103.019 47.8219" fill="#DE4C36"/>
    </g>


    <g id="github">
        <path fill-rule="evenodd" clip-rule="evenodd" d="M55 0C24.6125 0 0 23.4937 0 52.5C0 75.7312 15.7438 95.3531 37.6063 102.309C40.3563 102.769 41.3875 101.194 41.3875 99.8156C41.3875 98.5688 41.3188 94.4344 41.3188 90.0375C27.5 92.4656 23.925 86.8219 22.825 83.8688C22.2063 82.3594 19.525 77.7 17.1875 76.4531C15.2625 75.4688 12.5125 73.0406 17.1188 72.975C21.45 72.9094 24.5438 76.7812 25.575 78.3562C30.525 86.2969 38.4313 84.0656 41.5938 82.6875C42.075 79.275 43.5188 76.9781 45.1 75.6656C32.8625 74.3531 20.075 69.825 20.075 49.7437C20.075 44.0344 22.2063 39.3094 25.7125 35.6344C25.1625 34.3219 23.2375 28.9406 26.2625 21.7219C26.2625 21.7219 30.8687 20.3438 41.3875 27.1031C45.7875 25.9219 50.4625 25.3312 55.1375 25.3312C59.8125 25.3312 64.4875 25.9219 68.8875 27.1031C79.4063 20.2781 84.0125 21.7219 84.0125 21.7219C87.0375 28.9406 85.1125 34.3219 84.5625 35.6344C88.0688 39.3094 90.2 43.9687 90.2 49.7437C90.2 69.8906 77.3438 74.3531 65.1063 75.6656C67.1 77.3063 68.8188 80.4562 68.8188 85.3781C68.8188 92.4 68.75 98.0438 68.75 99.8156C68.75 101.194 69.7813 102.834 72.5313 102.309C83.4496 98.7907 92.9371 92.0924 99.6585 83.1572C106.38 74.2221 109.997 63.5 110 52.5C110 23.4937 85.3875 0 55 0Z" fill="black"/>
    </g>


    <g id="html">
        <path d="M22.1325 102.004L13.7063 7.5H106.294L97.8562 101.989L59.9438 112.5L22.1325 102.004Z" fill="#E44F26"/>
        <path d="M60 104.468L90.6375 95.9738L97.845 15.2288H60V104.468Z" fill="#F1662A"/>
        <path d="M60 50.2762H44.6625L43.605 38.4075H60V26.8162H30.9375L31.215 29.9287L34.0613 61.8675H60V50.2762ZM60 80.3775L59.9475 80.3925L47.04 76.9087L46.215 67.665H34.5787L36.2025 85.86L59.9475 92.4525L60 92.4375V80.3775Z" fill="#EBEBEB"/>
        <path d="M59.9587 50.2762V61.8675H74.2312L72.8887 76.9012L59.9587 80.3887V92.4487L83.7225 85.86L83.895 83.9025L86.6175 53.3887L86.9025 50.2762H59.9587ZM59.9587 26.8162V38.4075H87.9562L88.1887 35.805L88.7175 29.9287L88.995 26.8162H59.9587Z" fill="white"/>
    </g>


    <g id="javascript">
        <path d="M7.5 7.5H112.5V112.5H7.5V7.5Z" fill="#F5DE19"/>
        <path d="M78.0337 89.5312C78.9284 91.3485 80.3183 92.8759 82.0434 93.9375C83.7684 94.9991 85.7583 95.5515 87.7837 95.5313C91.8712 95.5313 94.485 93.4875 94.485 90.6562C94.485 87.2812 91.8 86.0738 87.3 84.105L84.8325 83.0475C77.7075 80.0138 72.9825 76.215 72.9825 68.1825C72.9825 60.7838 78.6075 55.1475 87.4312 55.1475C90.2876 54.9412 93.1415 55.5805 95.637 56.9856C98.1324 58.3907 100.159 60.4994 101.464 63.0488L93.75 67.98C93.2476 66.716 92.3728 65.6345 91.2416 64.879C90.1104 64.1236 88.7763 63.7298 87.4162 63.75C86.8228 63.6906 86.2236 63.7555 85.6566 63.9404C85.0897 64.1254 84.5675 64.4265 84.1233 64.8244C83.6792 65.2224 83.3228 65.7085 83.0768 66.2518C82.8309 66.7951 82.7009 67.3837 82.695 67.98C82.695 70.9388 84.5287 72.1388 88.7625 73.98L91.23 75.0375C99.615 78.6338 104.355 82.2975 104.355 90.5363C104.355 99.42 97.3762 104.287 88.005 104.287C84.3536 104.52 80.713 103.691 77.5223 101.901C74.3317 100.11 71.7274 97.4342 70.0237 94.1963L78.0337 89.5312ZM43.1775 90.3863C44.7262 93.135 46.1362 95.46 49.5262 95.46C52.7662 95.46 54.8137 94.1925 54.8137 89.2612V55.71H64.68V89.3925C64.68 99.6075 58.68 104.257 49.9462 104.257C46.8591 104.426 43.7931 103.657 41.1513 102.051C38.5096 100.444 36.4157 98.0761 35.145 95.2575L43.1775 90.3863Z" fill="black"/>
    </g>


    <g id="react">
        <path d="M92.9008 32.7027C91.6983 32.2886 90.4857 31.905 89.2639 31.5522C89.4692 30.7106 89.6581 29.8791 89.8258 29.0622C92.5791 15.6483 90.7792 4.84172 84.6313 1.28369C78.7368 -2.12728 69.0969 1.42943 59.3611 9.93336C58.4016 10.773 57.4634 11.6368 56.5474 12.5239C55.9342 11.934 55.3101 11.3555 54.6756 10.7888C44.472 1.6961 34.2445 -2.13614 28.1033 1.43209C22.2141 4.85368 20.4703 15.0126 22.949 27.7253C23.1956 28.9844 23.4741 30.2369 23.7841 31.4818C22.3364 31.8947 20.9395 32.3341 19.6026 32.8019C7.63967 36.9881 0 43.5482 0 50.3528C0 57.3808 8.20153 64.4299 20.6614 68.7043C21.6715 69.0494 22.6901 69.3692 23.7161 69.6633C23.3829 71.0041 23.0871 72.354 22.829 73.7113C20.4659 86.2034 22.3112 96.1222 28.1845 99.5221C34.2507 103.033 44.4322 99.4247 54.3458 90.7267C55.1497 90.0196 55.9359 89.2924 56.7036 88.5459C57.6956 89.5065 58.7141 90.4392 59.7579 91.3429C69.3612 99.6364 78.8454 102.985 84.713 99.5762C90.7734 96.0549 92.7432 85.3994 90.186 72.4355C89.9845 71.4199 89.7586 70.4093 89.5084 69.4046C90.2235 69.192 90.9252 68.9732 91.6094 68.7455C104.563 64.4384 112.991 57.4747 112.991 50.3528C112.991 43.5234 105.104 36.919 92.9008 32.7027ZM90.0915 64.1473C89.4736 64.3524 88.8398 64.5504 88.1936 64.7431C86.7636 60.1995 84.8339 55.3683 82.4721 50.3763C84.7258 45.5035 86.5813 40.7339 87.9712 36.2199C89.1271 36.5557 90.2486 36.9097 91.33 37.2831C101.786 40.8961 108.164 46.2371 108.164 50.3528C108.164 54.7366 101.276 60.4276 90.0915 64.1473ZM85.4509 73.3764C86.5817 79.1086 86.7428 84.2915 85.9938 88.3435C85.3212 91.9843 83.9679 94.4114 82.2943 95.3838C78.7337 97.4525 71.1188 94.7636 62.9062 87.6706C61.9354 86.8304 60.988 85.9633 60.0651 85.0703C63.2492 81.5756 66.431 77.513 69.5365 73.0008C74.9989 72.5144 80.1594 71.7188 84.8392 70.633C85.0646 71.5425 85.2686 72.4572 85.4509 73.3764ZM38.521 95.0263C35.0421 96.2591 32.2712 96.2946 30.5962 95.3253C27.0321 93.2623 25.5504 85.298 27.5715 74.615C27.8117 73.3526 28.0868 72.0972 28.3964 70.8501C33.0246 71.8778 38.1476 72.6167 43.6228 73.0623C46.7494 77.4776 50.0231 81.5357 53.3223 85.0893C52.6212 85.7702 51.9034 86.4337 51.1698 87.0792C46.7856 90.9252 42.3927 93.6539 38.521 95.0263ZM22.223 64.1203C16.7133 62.2301 12.1633 59.7738 9.04455 57.0933C6.24185 54.6848 4.82726 52.2931 4.82726 50.3528C4.82726 46.2234 10.961 40.9563 21.1915 37.3766C22.4331 36.9424 23.7324 36.5327 25.0808 36.1482C26.495 40.764 28.3496 45.5903 30.5878 50.4707C28.3205 55.4232 26.4394 60.3266 25.0115 64.997C24.075 64.7277 23.1452 64.4354 22.223 64.1203ZM27.6862 26.7946C25.5628 15.903 26.973 7.687 30.522 5.62491C34.3019 3.42861 42.6606 6.56005 51.4708 14.4115C52.0453 14.9246 52.6105 15.4482 53.1661 15.9818C49.8832 19.5199 46.6395 23.548 43.5407 27.9371C38.2266 28.4314 33.1398 29.2252 28.463 30.2888C28.1749 29.131 27.9159 27.966 27.6862 26.795V26.7946ZM76.4254 38.8738C75.3207 36.9588 74.1751 35.0679 72.9893 33.2023C76.5944 33.6599 80.0486 34.2673 83.2922 35.0097C82.3185 38.1425 81.1048 41.4175 79.6761 44.7753C78.6317 42.7866 77.548 40.8191 76.4254 38.8738ZM56.5496 19.4442C58.7759 21.8651 61.0057 24.5677 63.1988 27.5003C58.7498 27.2894 54.2934 27.2885 49.8443 27.4976C52.0397 24.5921 54.2885 21.893 56.5496 19.4442ZM36.5463 38.9071C35.4377 40.8366 34.3742 42.7919 33.3565 44.7713C31.9512 41.4254 30.7485 38.1354 29.7664 34.9583C32.9902 34.2345 36.428 33.6427 40.0102 33.1935C38.8111 35.0704 37.6562 36.9753 36.5463 38.9066V38.9071ZM40.113 67.8569C36.4121 67.4422 32.9226 66.881 29.6998 66.1766C30.6973 62.9429 31.9265 59.5828 33.3623 56.1652C34.3839 58.1461 35.4519 60.1025 36.5653 62.033C37.7102 64.0175 38.8957 65.9613 40.113 67.8569ZM56.6829 81.6026C54.3948 79.1255 52.113 76.3847 49.8845 73.4371C52.0481 73.5222 54.2536 73.5656 56.4953 73.5656C58.7984 73.5656 61.075 73.5137 63.3158 73.4136C61.1156 76.4144 58.8942 79.1591 56.6829 81.6026ZM79.7215 55.9907C81.2319 59.4459 82.5048 62.7883 83.5155 65.9667C80.2397 66.7171 76.7026 67.3213 72.9756 67.77C74.1699 65.8699 75.3263 63.9461 76.4443 61.9998C77.581 60.0214 78.6737 58.0179 79.7215 55.9907ZM72.2633 59.5793C70.5517 62.5634 68.7439 65.4908 66.8428 68.357C63.399 68.6018 59.9477 68.7234 56.4953 68.7216C52.9789 68.7216 49.5588 68.6117 46.2653 68.3973C44.3145 65.5378 42.4722 62.6052 40.7424 59.6059H40.7428C39.0211 56.6224 37.413 53.5744 35.9218 50.4685C37.4092 47.3618 39.0125 44.3124 40.7283 41.3266L40.7278 41.3271C42.443 38.3406 44.2705 35.4206 46.2066 32.5733C49.5667 32.3181 53.0125 32.1853 56.4949 32.1853H56.4953C59.9936 32.1853 63.4438 32.3195 66.8031 32.5764C68.7195 35.4194 70.5354 38.3294 72.2474 41.3009C73.9689 44.2801 75.5934 47.3146 77.1183 50.3998C75.6091 53.5165 73.9897 56.5783 72.2633 59.5793ZM82.2206 5.4805C86.004 7.67061 87.4755 16.5023 85.0983 28.0841C84.9464 28.823 84.7761 29.5756 84.5907 30.3389C79.9025 29.2527 74.8122 28.4452 69.4826 27.9433C66.378 23.5059 63.1609 19.4717 59.9314 15.9792C60.7778 15.1603 61.6443 14.3627 62.5302 13.5871C70.8721 6.30135 78.6684 3.42462 82.2206 5.4805ZM56.4953 40.2263C62.0676 40.2263 66.585 44.7602 66.585 50.3528C66.585 55.9455 62.0676 60.4794 56.4953 60.4794C50.923 60.4794 46.4056 55.9455 46.4056 50.3528C46.4056 44.7602 50.923 40.2263 56.4953 40.2263Z"
              fill="#00D8FF"/>
    </g>


    <g id="redux">
        <path d="M72.6971 69.5627C76.5688 69.1619 79.5061 65.8242 79.3725 61.8184C79.2393 57.8131 75.9012 54.6086 71.8959 54.6086H71.6291C67.4897 54.7422 64.2856 58.2135 64.4193 62.3525C64.5529 64.3553 65.3537 66.091 66.5553 67.2926C62.016 76.2385 55.0734 82.7807 44.6594 88.2549C37.5832 91.9934 30.2402 93.3287 22.8971 92.3943C16.8889 91.593 12.216 88.923 9.27827 84.5164C5.00614 77.9742 4.60573 70.8975 8.21065 63.8213C10.7475 58.7475 14.7525 55.009 17.2893 53.1398C16.7553 51.4041 15.9541 48.4668 15.5537 46.3307C-3.80574 60.35 -1.80287 79.3094 4.07172 88.2549C8.47745 94.9311 17.4229 99.0701 27.3029 99.0701C29.9729 99.0701 32.643 98.8029 35.3135 98.1357C52.4033 94.7975 65.3541 84.65 72.6971 69.5627ZM96.1955 53.0066C86.0483 41.1234 71.0951 34.5811 54.0053 34.5811H51.8693C50.6676 32.1779 48.1307 30.5754 45.327 30.5754H45.0598C40.9213 30.709 37.7172 34.1803 37.8504 38.3197C37.984 42.325 41.3217 45.5295 45.327 45.5295H45.5938C48.5311 45.3959 51.068 43.5266 52.1361 40.9898H54.5393C64.6865 40.9898 74.2992 43.927 82.9779 49.6684C89.6533 54.0746 94.4598 59.816 97.1299 66.7586C99.3996 72.3664 99.266 77.8406 96.8627 82.5139C93.1246 89.5902 86.8496 93.4623 78.5717 93.4623C73.2311 93.4623 68.1578 91.8598 65.4873 90.6582C64.0188 91.9934 61.3484 94.1295 59.4791 95.4652C65.2205 98.1352 71.0951 99.6041 76.7025 99.6041C89.5197 99.6041 98.9992 92.5275 102.604 85.4512C106.476 77.707 106.209 64.3553 96.1955 53.0066ZM28.3709 71.832C28.5045 75.8377 31.8422 79.0418 35.8475 79.0418H36.1147C40.2537 78.9086 43.4578 75.4369 43.3242 71.2979C43.191 67.2922 39.8529 64.0881 35.8475 64.0881H35.5807C35.3135 64.0881 34.9127 64.0881 34.6463 64.2213C29.1721 55.1422 26.9025 45.2623 27.7037 34.5807C28.2373 26.5697 30.9078 19.6266 35.5807 13.8852C39.4525 8.94508 46.9291 6.5418 52.0029 6.40861C66.1549 6.14139 72.1627 23.7656 72.5635 30.8422C74.2992 31.2426 77.2365 32.1775 79.2393 32.8451C77.6369 11.2156 64.2856 0 51.4688 0C39.4524 0 28.3709 8.67869 23.9647 21.4963C17.8234 38.5865 21.8287 55.009 29.3053 67.9602C28.6381 68.8947 28.2373 70.3635 28.3709 71.8324V71.832Z"
              fill="#764ABC"/>
    </g>


    <g id="sass">
        <path d="M100.463 49.8709C96.3928 49.8917 92.8551 50.8637 89.8932 52.3005C88.806 50.1663 87.7193 48.265 87.5278 46.8703C87.3144 45.2436 87.0589 44.2503 87.3143 42.3064C87.5703 40.3625 88.721 37.5944 88.6995 37.3832C88.6785 37.1721 88.4436 36.1788 86.0996 36.158C83.7556 36.1367 81.7311 36.6016 81.4966 37.2142C81.2622 37.8268 80.8148 39.2215 80.5163 40.658C80.1114 42.7713 75.8284 50.314 73.3779 54.2653C72.5891 52.7233 71.9072 51.3707 71.7578 50.2932C71.5448 48.6665 71.2889 47.6732 71.5448 45.7293C71.8007 43.7854 72.9515 41.0177 72.93 40.8061C72.9085 40.595 72.6741 39.6017 70.3301 39.5809C67.9856 39.5596 65.9611 40.0245 65.7271 40.6371C65.4927 41.2502 65.2367 42.6866 64.7468 44.0813C64.2565 45.476 58.5667 58.0693 57.075 61.3227C56.4722 62.6396 55.8399 63.9429 55.1784 65.2318C55.1784 65.2318 55.157 65.2953 55.093 65.4008C54.8852 65.805 54.6722 66.2065 54.4541 66.6052V66.6261C54.1342 67.197 53.7932 67.7249 53.6228 67.7249C53.4948 67.7249 53.2604 66.2038 53.6653 64.133C54.5176 59.7594 56.5421 52.9558 56.5211 52.7233C56.5211 52.5964 56.9046 51.4133 55.1999 50.8003C53.5373 50.1876 52.9409 51.2017 52.7915 51.2017C52.6425 51.2017 52.5356 51.5611 52.5356 51.5611C52.5356 51.5611 54.3901 43.9123 48.9983 43.9123C45.6315 43.9123 40.9856 47.5677 38.6841 50.8637C36.0678 52.2754 33.4537 53.6911 30.8418 55.1108C29.5851 55.8082 28.2849 56.5055 27.0701 57.1603C26.9847 57.076 26.8997 56.97 26.8142 56.8857C20.2932 49.9765 8.2318 45.0954 8.74319 35.8199C8.93513 32.4392 10.1069 23.5647 31.9076 12.789C49.8506 4.02008 64.129 6.44974 66.6009 11.8378C70.1382 19.5292 58.9506 33.8126 40.4102 35.8829C33.3353 36.665 29.6271 33.9603 28.6898 32.9462C27.7095 31.8895 27.5601 31.8261 27.1976 32.0377C26.6012 32.3549 26.9847 33.3055 27.1976 33.8547C27.752 35.2911 30.032 37.8268 33.8892 39.0738C37.2989 40.1722 45.5886 40.7853 55.6258 36.9396C66.8564 32.629 75.6364 20.6489 73.058 10.6126C70.4791 0.428159 53.4308 -2.93131 37.2989 2.75224C27.7095 6.13346 17.3098 11.4577 9.82995 18.3882C0.943427 26.6283 -0.463244 33.7913 0.112129 36.7919C2.17964 47.4408 16.9904 54.3713 22.9146 59.5057C22.6161 59.6747 22.3387 59.8229 22.1047 59.9497C19.1424 61.4075 7.84791 67.26 5.03502 73.4511C1.83871 80.4659 5.54687 85.4951 7.99735 86.1707C15.6052 88.2628 23.426 84.5019 27.624 78.2895C31.8221 72.0776 31.3107 64.0061 29.3716 60.3086C29.3502 60.2665 29.3291 60.2239 29.2862 60.1817C30.0535 59.7381 30.8418 59.2732 31.6091 58.8296C33.0194 58.003 34.4476 57.2068 35.8927 56.4417C35.1679 58.4069 34.635 60.7522 34.3795 64.133C34.0596 68.1055 35.7003 73.2607 37.8528 75.2889C38.8121 76.1771 39.9413 76.1979 40.6661 76.1979C43.1806 76.1979 44.3103 74.1271 45.5676 71.6762C47.1017 68.676 48.4869 65.1897 48.4869 65.1897C48.4869 65.1897 46.7608 74.6133 51.4492 74.6133C53.1539 74.6133 54.88 72.4157 55.6473 71.296V71.3168C55.6473 71.3168 55.6898 71.2534 55.7753 71.1057C55.9458 70.8311 56.0522 70.6616 56.0522 70.6616V70.6199C56.7341 69.4364 58.2687 66.753 60.5487 62.2947C63.4896 56.5477 66.324 49.3638 66.324 49.3638C66.324 49.3638 66.5799 51.1174 67.4532 54.0333C67.9651 55.7448 69.0299 57.6252 69.8827 59.4422C69.2008 60.3934 68.7744 60.9212 68.7744 60.9212L68.7959 60.9425C68.2416 61.6607 67.6452 62.4424 66.9843 63.2036C64.6614 65.95 61.8914 69.0988 61.5075 70.0069C61.0597 71.0844 61.1666 71.8665 62.0194 72.5004C62.6373 72.9653 63.7451 73.0283 64.8748 72.9653C66.9633 72.8171 68.4335 72.3101 69.1579 71.9934C70.2876 71.5919 71.6088 70.9788 72.8446 70.0703C75.125 68.401 76.5098 66.0135 76.3823 62.8656C76.3183 61.1329 75.7429 59.4001 75.0396 57.7729C75.253 57.4775 75.4445 57.1816 75.6579 56.8857C79.2591 51.6666 82.051 45.9405 82.051 45.9405C82.051 45.9405 82.3069 47.6941 83.1803 50.6104C83.6066 52.0894 84.4804 53.6953 85.2473 55.2585C81.859 57.9845 79.7705 61.1537 79.0247 63.2245C77.6824 67.0702 78.7262 68.8024 80.7083 69.2039C81.6031 69.3942 82.8818 68.9715 83.8196 68.57C85.0129 68.1898 86.4195 67.5351 87.7622 66.5627C90.0427 64.8938 92.2372 62.5693 92.1093 59.4214C92.0453 57.9845 91.6619 56.5685 91.129 55.1951C94.0059 54.0125 97.714 53.3572 102.445 53.9064C112.589 55.0895 114.592 61.3649 114.208 64.0066C113.824 66.6474 111.693 68.0843 110.991 68.5279C110.287 68.9719 110.053 69.1196 110.117 69.4364C110.202 69.9013 110.543 69.8804 111.14 69.7957C111.971 69.648 116.467 67.6615 116.659 62.8017C116.979 56.5898 111.012 49.8075 100.463 49.8709ZM22.2112 76.0289C18.844 79.6629 14.156 81.0364 12.1314 79.8746C9.95792 78.6276 10.8102 73.2607 14.9443 69.4155C17.4588 67.0702 20.6981 64.8933 22.8506 63.5625C23.3405 63.2666 24.0653 62.8443 24.9391 62.316C25.0881 62.2312 25.1736 62.1891 25.1736 62.1891L25.6849 61.8719C27.1976 67.3656 25.7489 72.2045 22.2112 76.0289ZM46.7183 59.5057C45.5461 62.3373 43.0956 69.5845 41.6039 69.1831C40.3252 68.845 39.5364 63.3514 41.348 57.9211C42.2643 55.1951 44.2034 51.9412 45.3331 50.6738C47.1657 48.6452 49.1903 47.9687 49.6802 48.7934C50.2985 49.8709 47.4427 57.7308 46.7183 59.5057ZM66.9418 69.0983C66.4515 69.3521 65.983 69.5211 65.7696 69.3942C65.6206 69.3095 65.983 68.9715 65.983 68.9715C65.983 68.9715 68.519 66.2672 69.5203 65.0415C70.0961 64.3233 70.7775 63.4782 71.5023 62.5271V62.8017C71.5023 66.0348 68.348 68.2111 66.9414 69.0983H66.9418ZM82.5409 65.5699C82.1785 65.3161 82.2425 64.471 83.4572 61.8298C83.9261 60.7944 85.0339 59.0621 86.9309 57.3928C87.1439 58.0688 87.2933 58.724 87.2719 59.3367C87.2504 63.4148 84.31 64.9359 82.5409 65.5699Z"
              fill="#CD6799"/>
    </g>


    <g id="tailwind">
        <path d="M36.8438 56.0844C40.6646 40.801 50.2167 33.1594 65.5 33.1594C88.425 33.1594 91.2906 50.3531 102.753 53.2187C110.395 55.1292 117.081 52.2635 122.812 44.6219C118.992 59.9052 109.44 67.5469 94.1562 67.5469C71.2313 67.5469 68.3656 50.3531 56.9031 47.4875C49.2615 45.5771 42.575 48.4427 36.8438 56.0844ZM8.1875 90.4719C12.0083 75.1885 21.5604 67.5469 36.8438 67.5469C59.7687 67.5469 62.6344 84.7406 74.0969 87.6062C81.7385 89.5167 88.425 86.651 94.1562 79.0094C90.3354 94.2927 80.7833 101.934 65.5 101.934C42.575 101.934 39.7094 84.7406 28.2469 81.875C20.6052 79.9646 13.9187 82.8302 8.1875 90.4719Z"
              fill="#44A8B3"/>
    </g>


    <g id="vscode">
        <path d="M101.535 17.605L81.354 7.88899C80.2143 7.33948 78.9319 7.15814 77.6845 7.37011C76.4372 7.58208 75.2867 8.17686 74.3925 9.07199L8.32998 69.3C7.52845 70.0273 7.04865 71.0432 6.99614 72.1243C6.94363 73.2053 7.32271 74.2629 8.04998 75.0645C8.13748 75.159 8.22498 75.25 8.31948 75.334L13.713 80.234C14.4178 80.8754 15.3249 81.2497 16.277 81.2919C17.229 81.3341 18.1657 81.0416 18.9245 80.465L98.497 20.125C99.098 19.6689 99.8144 19.3897 100.566 19.3186C101.317 19.2476 102.073 19.3877 102.749 19.7231C103.424 20.0585 103.993 20.5758 104.391 21.217C104.789 21.8581 105 22.5975 105 23.352V23.1175C105 21.9656 104.675 20.8372 104.062 19.862C103.449 18.8868 102.573 18.1045 101.535 17.605Z"
              fill="#0065A9"/>
        <path d="M101.535 94.395L81.354 104.115C80.214 104.662 78.9319 104.843 77.6849 104.631C76.4379 104.419 75.2875 103.825 74.3925 102.932L8.32998 42.7C7.52845 41.9727 7.04865 40.9568 6.99614 39.8758C6.94363 38.7947 7.32271 37.7371 8.04998 36.9355C8.13748 36.841 8.22498 36.75 8.31948 36.666L13.713 31.766C14.4185 31.1219 15.3277 30.7459 16.2821 30.7037C17.2365 30.6615 18.1754 30.9557 18.935 31.535L98.497 91.875C99.098 92.3311 99.8144 92.6104 100.566 92.6814C101.317 92.7524 102.073 92.6123 102.749 92.2769C103.424 91.9415 103.993 91.4242 104.391 90.783C104.789 90.1419 105 89.4025 105 88.648V88.9C104.996 90.0488 104.669 91.1733 104.057 92.1451C103.444 93.1168 102.57 93.8965 101.535 94.395Z"
              fill="#007ACC"/>
        <path d="M81.354 104.114C80.214 104.662 78.9319 104.843 77.6849 104.631C76.4379 104.419 75.2875 103.825 74.3925 102.931C74.8951 103.428 75.5329 103.764 76.2261 103.899C76.9192 104.034 77.6368 103.962 78.289 103.691C78.9411 103.42 79.4988 102.963 79.8921 102.376C80.2854 101.79 80.4969 101.1 80.5 100.394V11.606C80.5006 10.8965 80.2906 10.2028 79.8966 9.61274C79.5026 9.02271 78.9423 8.56288 78.2868 8.29152C77.6312 8.02016 76.9099 7.94946 76.2141 8.0884C75.5184 8.22734 74.8795 8.56965 74.3785 9.07197C75.2728 8.17717 76.4231 7.58235 77.6702 7.3698C78.9174 7.15724 80.1997 7.33744 81.34 7.88547L101.517 17.5875C102.559 18.0845 103.438 18.8657 104.054 19.8411C104.67 20.8165 104.998 21.9463 105 23.1V88.9C105 90.0528 104.675 91.1822 104.061 92.1581C103.447 93.134 102.571 93.9167 101.531 94.416L81.354 104.114Z"
              fill="#1F9CF0"/>
    </g>


<!--    icons footer-->

    <g id="instagram">
        <path d="M24.75 18.75C24.75 19.9367 24.3981 21.0967 23.7388 22.0834C23.0795 23.0701 22.1425 23.8392 21.0461 24.2933C19.9497 24.7474 18.7433 24.8662 17.5795 24.6347C16.4156 24.4032 15.3465 23.8318 14.5074 22.9926C13.6682 22.1535 13.0968 21.0844 12.8653 19.9205C12.6338 18.7567 12.7526 17.5503 13.2067 16.4539C13.6608 15.3575 14.4299 14.4205 15.4166 13.7612C16.4033 13.1019 17.5633 12.75 18.75 12.75C20.3407 12.7518 21.8658 13.3846 22.9906 14.5094C24.1154 15.6342 24.7482 17.1593 24.75 18.75ZM37.5 10.5V27C37.4968 29.7838 36.3896 32.4527 34.4211 34.4211C32.4527 36.3896 29.7838 37.4968 27 37.5H10.5C7.7162 37.4968 5.04733 36.3896 3.07889 34.4211C1.11044 32.4527 0.00317604 29.7838 0 27V10.5C0.00317604 7.7162 1.11044 5.04733 3.07889 3.07889C5.04733 1.11044 7.7162 0.00317604 10.5 0H27C29.7838 0.00317604 32.4527 1.11044 34.4211 3.07889C36.3896 5.04733 37.4968 7.7162 37.5 10.5ZM27.75 18.75C27.75 16.97 27.2222 15.2299 26.2332 13.7499C25.2443 12.2698 23.8387 11.1163 22.1942 10.4351C20.5496 9.7539 18.74 9.57567 16.9942 9.92293C15.2484 10.2702 13.6447 11.1274 12.386 12.386C11.1274 13.6447 10.2702 15.2484 9.92293 16.9942C9.57567 18.74 9.7539 20.5496 10.4351 22.1942C11.1163 23.8387 12.2698 25.2443 13.7499 26.2332C15.2299 27.2222 16.97 27.75 18.75 27.75C21.1361 27.7473 23.4238 26.7982 25.111 25.111C26.7982 23.4238 27.7473 21.1361 27.75 18.75ZM30.75 9C30.75 8.55499 30.618 8.11998 30.3708 7.74997C30.1236 7.37996 29.7722 7.09157 29.361 6.92127C28.9499 6.75097 28.4975 6.70642 28.061 6.79323C27.6246 6.88005 27.2237 7.09434 26.909 7.40901C26.5943 7.72368 26.38 8.12459 26.2932 8.56105C26.2064 8.9975 26.251 9.4499 26.4213 9.86104C26.5916 10.2722 26.88 10.6236 27.25 10.8708C27.62 11.118 28.055 11.25 28.5 11.25C29.0967 11.25 29.669 11.0129 30.091 10.591C30.5129 10.169 30.75 9.59674 30.75 9Z" fill="#25282B"/></g>

    <g id="linkedin">
        <path d="M0 2.72175C0 1.21837 1.24925 0 2.79062 0H35.2094C36.7507 0 38 1.21837 38 2.72175V35.2783C38 36.7816 36.7507 38 35.2094 38H2.79062C1.24925 38 0 36.7816 0 35.2783V2.72175ZM11.7396 31.8108V14.6514H6.03725V31.8108H11.7396ZM8.88963 12.3073C10.8775 12.3073 12.1149 10.9915 12.1149 9.34325C12.0792 7.65938 10.8799 6.37925 8.92762 6.37925C6.97538 6.37925 5.7 7.66175 5.7 9.34325C5.7 10.9915 6.93738 12.3073 8.85163 12.3073H8.88963ZM20.5461 31.8108V22.2276C20.5461 21.7146 20.5841 21.2016 20.7361 20.8359C21.147 19.8123 22.0851 18.7506 23.6621 18.7506C25.726 18.7506 26.5501 20.3229 26.5501 22.6314V31.8108H32.2525V21.9688C32.2525 16.6962 29.4405 14.2453 25.688 14.2453C22.6623 14.2453 21.3061 15.9078 20.5461 17.0786V17.138H20.5081C20.5207 17.1182 20.5334 17.0984 20.5461 17.0786V14.6514H14.8461C14.9174 16.2616 14.8461 31.8108 14.8461 31.8108H20.5461Z" fill="#25282B"/>
    </g>

    <g id="mail">
        <path fill-rule="evenodd" clip-rule="evenodd" d="M0.13125 4.14667C0.395898 2.96865 1.04647 1.91683 1.97642 1.16349C2.90637 0.410143 4.06057 -8.13185e-05 5.25 1.2091e-08H36.75C37.9394 -8.13185e-05 39.0936 0.410143 40.0236 1.16349C40.9535 1.91683 41.6041 2.96865 41.8687 4.14667L21 17.104L0.13125 4.14667ZM0 7.192V26.136L15.2329 16.648L0 7.192ZM17.7476 18.2133L0.501375 28.952C0.927482 29.8648 1.60001 30.6358 2.44068 31.1754C3.28135 31.715 4.25558 32.001 5.25 32H36.75C37.7443 32.0002 38.7181 31.7136 39.5583 31.1736C40.3985 30.6335 41.0705 29.8622 41.496 28.9493L24.2498 18.2107L21 20.2293L17.7476 18.2107V18.2133ZM26.7671 16.6507L42 26.136V7.192L26.7671 16.648V16.6507Z" fill="#25282B"/>
    </g>

    <g id="bootstrap">
        <path d="M0 75.7821C0 81.9781 5.08028 87 11.3468 87H76.6528C82.9204 87 88 81.9774 88 75.7821V11.2182C88 5.02187 82.9197 0 76.6532 0H11.3472C5.07959 0 0 5.02255 0 11.2179V75.7818V75.7821Z" fill="#563D7C"/>
        <path d="M36.4918 38.4832V26.1629H47.4612C48.5062 26.1629 49.5134 26.2489 50.4835 26.4212C51.4535 26.5931 52.3119 26.9003 53.0582 27.3431C53.8041 27.786 54.4012 28.4007 54.8491 29.1875C55.2967 29.9746 55.5208 30.9829 55.5208 32.2121C55.5208 34.4255 54.8491 36.0241 53.5057 37.0076C52.1627 37.9915 50.4464 38.4832 48.3567 38.4832H36.4918ZM24.7758 17.1621V69.8379H50.5955C52.9836 69.8379 55.3094 69.5429 57.573 68.9526C59.8366 68.3623 61.8513 67.4525 63.6175 66.223C65.3833 64.9934 66.7889 63.407 67.8336 61.4645C68.8786 59.5216 69.4007 57.2222 69.4007 54.5663C69.4007 51.2709 68.5922 48.4553 66.9756 46.1192C65.3586 43.7828 62.9083 42.1474 59.6248 41.2129C62.0128 40.0819 63.8165 38.6307 65.0354 36.8601C66.254 35.0895 66.8635 32.8765 66.8635 30.2203C66.8635 27.7612 66.4531 25.6956 65.6322 24.0232C64.8113 22.3512 63.6546 21.0108 62.162 20.0025C60.6698 18.9942 58.8789 18.2686 56.7892 17.8262C54.6999 17.3833 52.3865 17.1621 49.8493 17.1621H24.7758ZM36.4918 60.8371V46.3771H49.2522C51.7894 46.3771 53.8292 46.9548 55.3716 48.111C56.9137 49.2668 57.685 51.1971 57.685 53.9023C57.685 55.2797 57.4485 56.4107 56.9759 57.296C56.5032 58.1813 55.869 58.8823 55.0729 59.3986C54.2771 59.9151 53.3565 60.2839 52.3119 60.5054C51.2669 60.7263 50.1727 60.8371 49.0284 60.8371H36.4918Z" fill="white"/>
    </g>

<g id="greensock">
    <path d="M67.365 119.745C65.8013 119.471 64.1813 118.729 63.2625 117.908C62.6388 117.253 62.2829 116.389 62.265 115.485C62.265 114.566 62.7338 113.276 63.4763 111.99C63.9263 111.266 64.2788 110.486 64.53 109.665C64.6875 109.099 65.0175 108.18 65.2725 107.595L65.7225 106.523L65.8388 99.3563C65.8988 95.3925 66.015 91.7213 66.1125 91.1513C66.3675 89.5088 66.795 87.9075 67.3613 86.3475L67.7925 85.3125L67.1663 84.9413C66.6 84.5888 66.1313 84.1013 64.275 81.8925C61.9913 79.1963 58.9838 77.7113 54.7238 77.205C53.3363 77.07 51.93 76.9688 50.5238 76.9125C44.2725 76.62 40.6988 75.3113 37.4775 72.1463C35.0738 69.7838 33.825 67.0275 33.3188 62.9663C32.6363 57.4763 31.875 54.6638 30.4688 52.38C30.1222 51.816 29.7229 51.2861 29.2763 50.7975L28.71 50.2313L27.4613 51.0338C26.7788 51.4838 25.8188 52.05 25.35 52.305C23.7863 53.1638 22.3013 54.12 20.8763 55.155C17.3813 57.6938 13.5713 60.8775 11.4825 62.9663C10.545 63.9038 10.0575 64.3125 9.84001 64.275C8.41501 64.0613 9.50626 57.8888 11.8313 53.2388C14.8013 47.2425 19.8 41.715 25.5825 37.9838C30.33 34.9163 38.0063 30.6975 41.5575 29.2125C47.865 26.5763 56.0288 23.7225 61.6163 22.2C62.79 21.8663 63.51 21.5738 63.9975 21.2438C65.0925 20.4825 66.165 20.1113 67.395 20.0925C68.43 20.0738 68.5275 20.055 69.525 19.3875C70.6988 18.6263 71.0475 18.585 72.2213 18.9975L72.9825 19.2713L73.92 18.6263L74.8575 18L76.2038 18.0188C77.2388 18.0375 77.7075 18 78.1575 17.805C78.7238 17.55 78.7425 17.5125 78.9 16.575C79.2525 14.5425 79.29 13.5263 79.0763 12.2963C78.8025 10.6763 78.765 4.3875 79.0388 3.15375C79.3313 1.82625 79.5263 1.5525 80.5238 1.065C82.0088 0.341252 83.1225 0.127502 85.68 0.127502C88.8038 0.127502 90.3863 0.558753 91.56 1.69125C92.6138 2.7075 92.79 5.08875 92.2425 10.6763C91.9088 13.8975 91.8713 14.7975 91.9688 16.905C92.0063 18.2513 92.1038 19.5225 92.145 19.6988C92.2238 20.0325 92.3025 20.0513 93.435 20.07C94.5488 20.0888 94.7438 20.1488 95.7975 20.6963C96.8138 21.225 97.575 21.87 97.7325 22.3388C97.7513 22.4363 97.9275 22.4363 98.2388 22.3388C98.8425 22.1625 99.3713 22.3575 99.8025 22.8863C100.058 23.22 100.211 23.2763 100.8 23.2763C101.603 23.2763 101.895 23.4713 102.559 24.45C102.869 24.8893 103.295 25.2344 103.789 25.4475C104.884 25.995 106.369 27.5175 106.935 28.7288C107.813 30.525 107.989 32.6138 107.441 34.4888C107.246 35.1938 107.246 35.2125 107.655 35.895C108.514 37.3613 108.829 39.1575 108.476 40.68L108.281 41.58L108.866 42.165C111.776 45.075 111.345 49.8225 107.794 54.06C107.397 54.544 107.062 55.0756 106.796 55.6425C106.114 57.4575 105.33 58.7288 104.318 59.7825L103.283 60.8363H102.229C101.175 60.8363 99.69 60.4838 98.79 60.015C98.4188 59.82 98.4 59.82 98.4788 60.0525C98.715 60.9113 99.3 64.4063 99.495 66.3413C99.8063 69.3113 99.7088 73.6275 99.3 75.4838C99.0013 76.8586 98.5009 78.1816 97.815 79.41C97.425 80.0363 97.4063 80.1713 97.4813 80.9325C97.5975 82.005 97.3463 83.805 96.915 84.9938C96.3863 86.3813 96.1913 87.0263 96.075 87.7275C95.9775 88.3313 95.9775 88.3313 96.4088 88.3313C96.975 88.3313 97.2863 88.665 97.2863 89.3288C97.2863 89.6213 97.0313 91.2038 96.72 92.8238C95.8613 97.3763 95.8013 97.8825 95.8013 102.296C95.7825 106.849 95.7825 106.808 96.8175 107.49L99.1425 108.994C101.143 110.321 103.285 111.422 105.529 112.275C108.791 113.565 109.241 113.895 109.241 114.99C109.241 115.478 109.144 115.654 108.735 116.044C107.486 117.255 105.023 117.529 100.061 117C97.4832 116.758 94.8956 116.635 92.3063 116.629C85.47 116.531 84.4725 116.295 83.5763 114.596C83.07 113.621 83.1675 112.35 83.8688 110.261C84.18 109.343 84.4538 108.405 84.69 107.449C85.1588 105.184 84.8475 102.488 83.7525 99.4425L82.815 96.8438C81.8963 94.2075 81.39 89.3813 81.9375 88.29C82.035 88.0763 82.2113 88.035 82.68 88.0538L83.265 88.1138L83.7525 87.0975C84.1238 86.295 84.5325 85.77 85.6463 84.6563L87.0713 83.2313L86.9925 82.3125C86.9325 81.435 85.7813 77.175 85.6238 77.1938C85.5638 77.1938 85.2525 77.625 84.9 78.1688C84.0413 79.4588 82.1475 81.45 81.0713 82.1738C80.6025 82.485 80.2125 82.8563 80.2125 82.9763C80.1938 83.505 79.7438 84.54 79.1963 85.26C78.6675 85.965 78.63 86.0813 78.7088 86.7038C78.8438 87.6225 78.5513 90.57 78.2025 92.115C77.8864 93.2622 77.4541 94.3742 76.9125 95.4338C75.5663 98.2275 74.55 100.725 74.295 101.88C74.1108 102.992 73.9931 104.114 73.9425 105.24C73.8825 106.568 73.7475 107.858 73.65 108.131C73.515 108.503 73.515 108.795 73.6313 109.361C73.7288 109.77 73.7888 110.689 73.7663 111.413C73.7475 112.41 73.8263 113.055 74.1188 114.225C74.625 116.216 74.7225 117.469 74.49 118.211C74.3325 118.68 74.1788 118.856 73.65 119.111C72.4763 119.715 69.1575 120.049 67.3613 119.738L67.365 119.745ZM72.1088 118.144C72.7913 117.949 73.38 117.364 73.38 116.835C73.38 116.599 73.185 115.916 72.9488 115.313C72.48 114.161 71.6775 111.113 71.6775 110.606C71.6775 110.351 71.6963 110.333 72.0863 110.546L72.5175 110.783V110.235C72.4549 109.73 72.3432 109.233 72.1838 108.75C71.8125 107.636 71.775 107.618 69.4088 107.479L67.8075 107.4L67.2225 107.966C66.9008 108.297 66.6189 108.665 66.3825 109.061C66.1275 109.568 66.03 110.333 66.1875 110.505C66.225 110.565 66.6188 110.505 67.0463 110.408C67.3 110.332 67.5619 110.287 67.8263 110.273C67.8263 110.291 67.395 110.644 66.8513 111.015C64.5075 112.774 63.6863 113.846 63.6863 115.215C63.6863 116.64 65.0325 117.754 67.1438 118.088C68.5875 118.301 71.4 118.361 72.105 118.148L72.1088 118.144ZM103.886 115.819C104.471 115.114 104.393 114.394 103.65 113.573C103.219 113.141 102.731 112.77 102.184 112.478C101.636 112.185 101.089 111.851 100.541 111.503C99.551 110.861 98.5338 110.261 97.4925 109.706C96.5925 109.219 95.715 108.709 94.8563 108.165L94.5038 107.891V102.521C94.5038 97.23 94.485 97.1513 94.2113 97.23C92.8425 97.6013 90.5775 97.7775 87.7088 97.7175L84.6038 97.68L85.0538 98.775C85.8938 100.845 86.325 103.62 86.325 106.804C86.325 107.996 86.2463 108.424 85.9538 109.264C85.7963 109.673 85.6613 110.085 85.5225 110.494C85.4625 110.67 85.68 110.805 86.4788 111.041C87.0638 111.218 87.9225 111.394 88.4138 111.45L89.3138 111.548L89.2163 112.448C89.1188 113.464 89.235 114.536 89.49 114.87C89.6475 115.065 90.2325 115.144 92.9475 115.26C94.9988 115.358 97.2263 115.571 98.9813 115.826C100.504 116.063 102.146 116.258 102.634 116.258C103.455 116.276 103.534 116.239 103.883 115.826L103.886 115.819ZM72.6188 106.68C72.6975 106.62 72.8138 105.566 72.855 104.318C73.0125 100.823 73.1475 100.313 74.9063 96.3675C76.35 93.1463 77.115 90.1388 77.055 88.0088L77.0175 86.7375L76.47 87.2663C75.3375 88.3988 76.1175 86.6213 77.4675 85.0388C78.4838 83.8275 78.8363 83.1638 78.99 82.0913C79.0688 81.66 79.2263 81.4463 79.89 80.94C82.3735 79.0639 84.2871 76.5349 85.4175 73.635C85.6913 72.93 86.3925 70.53 86.9813 68.3025C88.0763 64.1813 88.6613 62.4038 89.19 61.6425C89.385 61.35 89.4638 61.29 89.4263 61.485C89.143 62.5324 88.9214 63.5955 88.7625 64.6688C88.605 65.625 88.3125 67.5 88.1175 68.8088C87.7463 71.4863 87.3563 73.2038 86.8275 74.5313L86.475 75.4313L87.4125 77.8538C88.3875 80.3325 88.8375 82.1325 88.9163 83.8688L88.9763 84.8438L88.215 85.0013C87.2103 85.1791 86.3137 85.7396 85.7138 86.565C85.05 87.5213 84.6788 88.305 84.855 88.4775C84.9338 88.5563 85.89 88.7325 86.985 88.8675C88.6838 89.0625 89.3288 89.0625 91.575 88.9275C92.55 88.89 93.51 88.7925 94.4663 88.6538C94.68 88.575 94.8975 88.1475 95.2463 87.0338C96.0488 84.4763 96.2025 83.5763 96.105 81.78L96.0263 80.1975L96.435 79.6688C97.3913 78.4575 98.1338 76.2713 98.445 73.71C98.8163 70.5863 98.1338 64.0425 96.8625 58.4175C96.2588 55.74 96.0038 54.1388 96.0038 52.9688V51.9338L95.0475 52.0313C91.6088 52.4025 87.45 52.305 84.9113 51.7763C83.5238 51.5025 80.0288 50.4675 79.2675 50.1338L78.6638 49.86L78.585 50.5425C78.525 50.9138 78.4688 51.285 78.39 51.675C78.2738 52.0838 78.3113 52.1813 79.035 52.8863C79.935 53.805 80.2088 54.2738 80.2088 54.8963C80.2088 55.2863 79.995 55.6013 78.9 56.7338C78.1149 57.5715 77.2439 58.3244 76.3013 58.98L75.03 59.8388L74.4825 61.7325C72.5288 68.6663 72.1575 74.9738 73.4475 79.485L73.7588 80.6175L73.1325 81.3975C70.7888 84.345 69.4013 86.5913 69.1875 87.8438C69.0626 88.4605 68.9187 89.0733 68.7563 89.6813C68.25 91.6163 67.8563 94.4475 67.6838 97.515C67.5636 100.083 67.3948 102.648 67.1775 105.21L67.08 105.971L68.055 106.264C68.6025 106.44 69.4238 106.635 69.8925 106.714C70.77 106.849 72.3938 106.811 72.645 106.676L72.6188 106.68ZM91.5825 95.9363C93.105 95.8388 94.4925 95.6025 94.7663 95.37C94.8825 95.2913 95.0213 94.8825 95.0588 94.47L95.1563 93.7275L93.945 94.0013C92.9888 94.1963 92.0325 94.3125 91.0725 94.3913C88.7663 94.4888 86.445 94.4288 84.1575 94.1963C83.3963 94.08 83.3963 94.08 83.6288 95.0738C83.8238 95.8163 83.865 95.8538 85.8563 95.9925C87.1838 96.1088 89.04 96.09 91.5788 95.9325L91.5825 95.9363ZM90.3113 92.5388C92.3025 92.3625 94.785 91.935 95.2725 91.68C95.43 91.6013 95.565 91.3088 95.625 90.975L95.8013 89.94L95.8988 89.4525L95.4113 89.55C93.2438 90 91.6013 90.135 88.32 90.135C85.1175 90.135 84.7463 90.1163 83.9063 89.8238C83.5834 89.6877 83.2397 89.6078 82.89 89.5875C82.755 89.6663 82.7325 90.78 82.8525 91.56C82.9313 92.0288 83.01 92.1075 83.4788 92.2425C84.9638 92.6513 87.465 92.7488 90.315 92.5163L90.3113 92.5388ZM54.0638 74.9213C59.0625 73.4775 65.6063 69.2363 70.9575 63.9263C72.6975 62.1863 72.9113 61.9538 73.1438 61.1738L73.455 60.1763C73.4925 60.0975 73.1813 59.9625 72.7725 59.865C71.7 59.61 70.8788 58.9875 70.8788 58.4213C70.8788 58.0875 70.6838 57.7575 70.1175 57.15C69.1988 56.115 68.9663 55.665 68.8688 54.6713L68.79 53.8688L67.695 53.0888C67.0688 52.6388 64.8825 51.4275 62.5575 50.2575C60.7873 49.3939 59.0545 48.4555 57.3638 47.445C55.41 46.1363 54.1013 44.5725 53.3588 42.72C53.2238 42.3488 53.0475 42.0375 52.9875 42.0375C52.83 42.0375 48.435 46.275 46.56 48.2663C41.9325 53.1488 38.7488 57.3863 36.735 61.3125C36.2288 62.2875 35.6813 63.4425 35.5238 63.87L35.2313 64.65L35.5838 65.9588C35.7975 66.6638 36.2475 67.815 36.6 68.4975C37.83 70.92 39.2963 72.3825 41.7188 73.575C44.3175 74.865 46.62 75.315 50.4675 75.255C52.5375 75.2363 53.145 75.1763 54.06 74.9025L54.0638 74.9213ZM14.61 57.7913C17.8913 54.8813 22.4213 51.6975 27.9713 48.3975C31.605 46.23 45.6488 39.1988 52.1138 36.3263C53.2875 35.7975 54.3413 35.31 54.4575 35.2538C54.5738 35.175 54.9075 34.335 55.2188 33.3975C56.5875 29.0625 57.27 28.2038 59.7488 27.6375C60.06 27.5588 60.1388 27.4613 60.1388 27.15C60.1388 26.5838 60.5288 25.275 60.8625 24.69C61.1175 24.24 61.1175 24.2213 60.9 24.2813C60.765 24.3188 59.9438 24.555 59.085 24.81C47.1713 28.2488 36.7613 32.8163 27.7763 38.52C18.1875 44.6138 12.66 51.9188 11.0588 60.6675L10.9425 61.3125L12.1163 60.1613C12.7425 59.5163 13.875 58.4625 14.6175 57.8175L14.61 57.7913ZM102.99 59.4525C103.946 58.965 105.431 56.7188 105.979 54.9413C106.136 54.315 106.448 53.73 106.898 53.2425C108.341 51.6413 109.534 48.7313 109.553 46.74C109.553 43.635 107.794 42.4425 105.236 43.77C104.903 43.9275 104.633 44.0438 104.591 44.0063C104.456 43.8713 105.176 43.1663 106.058 42.6188C107.209 41.8575 107.426 41.4075 107.426 39.7875C107.443 38.4781 107.054 37.1955 106.313 36.1163C105.96 35.5875 105.825 35.2388 105.881 35.0213L106.234 33.7125C106.721 31.9725 106.545 29.9813 105.784 28.7138C104.651 26.8013 103.264 25.8638 101.329 25.7063L100.196 25.6275L100.86 26.37C102.833 28.5 103.789 31.1738 103.399 33.4613C103.204 34.635 103.028 34.8675 101.895 35.3175L101.231 35.5913L101.31 36.4913C101.445 37.9575 101.194 39.03 100.256 41.0025C99.7875 42 99.435 42.8963 99.4763 42.9938C99.5925 43.3275 100.883 43.95 101.899 44.205L102.896 44.4413L102.27 44.655C101.449 44.91 101.273 45.2813 101.273 46.6275C101.273 47.8575 101.449 48.3675 102.345 49.7138C102.754 50.2988 103.028 50.9063 103.069 51.255C103.148 51.8025 103.129 51.84 102.679 51.9975C102.169 52.1407 101.644 52.2262 101.115 52.2525C99.2775 52.3688 99.1425 52.4288 98.3213 53.2088C97.5788 53.9138 97.56 53.9513 97.56 54.7313C97.56 55.8038 97.9688 57.975 98.2238 58.2675C98.5575 58.62 100.41 59.5388 101.134 59.6738C101.758 59.8305 102.418 59.7545 102.99 59.46V59.4525ZM75.9375 57.99C77.13 57.0525 78.0675 56.115 78.5925 55.3125C78.9263 54.825 78.945 54.7275 78.7875 54.315C78.5138 53.6888 76.7175 52.0688 75.72 51.5813C75.0554 51.2835 74.3523 51.0802 73.6313 50.9775L72.4013 50.82L71.64 49.8638C70.0575 47.91 69.18 46.3875 67.9275 43.4363C66.8325 40.935 65.8763 39.4725 64.3538 38.025C63.7275 37.44 63.2813 36.9525 63.3188 36.9525C63.3975 36.9525 64.14 37.3238 64.9988 37.7738C66.4238 38.535 66.6 38.595 67.245 38.4975C69.57 38.2238 71.6213 35.55 72.3638 31.8C72.5775 30.7463 73.0088 29.67 73.4588 29.025C73.4775 29.0063 74.3775 29.5913 75.4313 30.3525C78.1088 32.2463 78.6938 32.5388 80.2163 32.5988C81.2138 32.6363 81.78 32.5613 83.5763 32.13C87.405 31.1925 91.545 30.8213 94.065 31.155C95.49 31.35 97.5413 31.9763 99.0638 32.6963C100.568 33.4013 100.86 33.4388 101.348 33.0075C101.756 32.655 101.756 32.5988 101.756 31.29C101.738 29.355 101.033 27.2663 99.96 26.0175C99.4125 25.3725 97.8713 24.3188 96.345 23.5163C95.8025 23.2285 95.2625 22.936 94.725 22.6388C94.0013 22.2075 93.1838 22.2675 90.9563 22.8525C88.3763 23.5163 87.6938 23.5163 84.7463 22.755C82.245 22.1288 82.0913 22.11 79.6275 22.5C78.3188 22.695 75.0375 22.5788 73.9425 22.2863C73.395 22.1288 72.8475 21.975 72.3225 21.78C71.3663 21.4088 69.705 21.3488 68.2013 21.6225C65.2125 22.1513 62.9475 23.7713 62.1263 25.9763C61.695 27.09 61.755 27.6188 62.3213 27.9675C63.2213 28.5338 64.41 30.0788 64.41 30.6825C64.41 30.72 64.1175 30.4688 63.7838 30.1163C62.9438 29.2388 62.1825 28.845 61.2825 28.845C60.7002 28.8612 60.134 29.0397 59.6477 29.3603C59.1613 29.681 58.7743 30.1311 58.53 30.66C58.2672 31.35 58.0456 32.055 57.8663 32.7713C57.3188 34.7625 56.8313 35.82 55.7963 37.2263C54.8775 38.4975 54.7425 39.0638 55.0725 40.4888C55.8938 44.0813 57.3188 45.5288 63.2738 48.9075C66.3975 50.685 67.9988 51.6825 69.1725 52.56C70.0725 53.2238 70.0913 53.265 70.0125 53.7713C69.8363 54.945 70.5788 56.2125 72.045 57.2475C72.4163 57.5025 72.6488 57.7763 72.6488 57.9713C72.6488 58.3238 73.6463 58.8113 74.3663 58.8113C74.775 58.8113 75.09 58.635 75.93 57.99H75.9375ZM100.02 51.405C102.285 51.4838 102.401 51.3075 101.194 49.9013C99.9225 48.435 99.5738 47.2463 100.043 45.9375L100.238 45.4313L99.435 45.0413C99.1613 44.9063 98.8875 44.7675 98.6138 44.67C98.4788 45.1988 98.34 45.705 98.2238 46.2338C97.9313 47.4263 97.5788 50.5125 97.56 51.8213C97.56 51.9375 97.755 51.9 98.0888 51.6863C98.5575 51.4125 98.7938 51.375 100.024 51.4125L100.02 51.405ZM92.4225 51.2888C93.7913 51.21 95.1975 51.1125 95.5688 51.0525L96.2513 50.955L96.33 48.7088C96.4463 45.5063 96.915 43.6125 98.3025 40.5825C99.2775 38.4338 99.7088 36.5588 99.495 35.1525C99.4163 34.5488 99.3788 34.5075 98.5575 34.155C97.0537 33.5579 95.4877 33.1315 93.8888 32.8838C92.3475 32.67 87.8138 32.7863 86.115 33.12C85.41 33.2363 84.1238 33.51 83.265 33.7238C81.135 34.2113 80.0025 34.155 78.3825 33.45C76.7813 32.745 75.765 32.1038 74.8088 31.2038C74.0475 30.4988 73.9688 30.4613 73.7738 30.6975C73.6163 30.8738 73.5375 31.4025 73.4813 32.535C73.4213 34.275 73.1475 35.19 72.3863 36.42C72.2171 36.6731 72.0727 36.9418 71.955 37.2225C71.955 37.2825 72.54 37.965 73.2638 38.7075C75.765 41.3063 76.995 41.97 78.9675 41.8313C79.6125 41.7713 80.0625 41.7938 80.0625 41.8688C80.0625 42.0263 78.7913 43.02 78.2663 43.2938C78.0113 43.4288 77.955 43.5675 77.9925 43.86L78.3038 45.9113C78.48 47.085 78.615 47.6288 78.7913 47.7863C79.26 48.1763 81.6825 49.4288 83.205 50.0513C85.1963 50.8538 86.2913 51.1463 87.8138 51.2813C89.6888 51.4388 89.7263 51.4388 92.4225 51.2813V51.2888ZM76.2713 49.14C76.3088 49.08 76.1738 47.9475 75.9188 46.6388C75.6075 44.8613 75.4313 44.2163 75.2363 44.04C75.1013 43.9238 74.3775 43.4138 73.6538 42.8888C72.7028 42.205 71.8018 41.4543 70.9575 40.6425L69.6113 39.315L68.8875 39.6863L68.1263 40.095C68.1903 40.4001 68.295 40.6952 68.4375 40.9725C68.6513 41.4413 69.0825 42.5925 69.3938 43.53C70.215 45.9713 70.86 47.145 72.48 49.2713L73.0838 50.0738L74.235 50.25C74.88 50.3475 75.525 50.4863 75.7013 50.5425C75.975 50.6588 76.0125 50.6025 76.0913 49.9763C76.1288 49.7025 76.1888 49.41 76.2675 49.1363L76.2713 49.14ZM101.018 24.8438C102.015 24.7463 102.191 24.6075 101.76 24.1613C101.486 23.8875 100.86 23.8688 100.354 24.1013C100.02 24.2588 99.945 24.2175 99.4163 23.6513C98.8688 23.0475 98.8313 23.025 98.145 23.1038C97.5188 23.1825 97.4213 23.1638 97.3425 22.9088C97.0986 22.4899 96.7955 22.1084 96.4425 21.7763C95.999 21.2722 95.4444 20.8781 94.8225 20.625C93.6113 20.1563 92.9288 20.2163 91.7738 20.8613C88.4325 22.6763 88.5713 22.6575 85.3463 21.8363C82.3388 21.075 80.0925 20.295 79.3688 19.8038C78.765 19.395 77.475 18.945 76.3988 18.8063C75.5963 18.69 75.09 18.8663 74.3288 19.4888L73.92 19.8225L74.2913 20.4675C74.7975 21.3675 74.7413 21.4238 73.98 20.76C73.1588 20.0775 72.1838 19.6088 71.5575 19.5863C71.1075 19.5863 69.78 20.1713 69.6225 20.4263C69.5625 20.505 69.975 20.6025 70.5225 20.64C71.0888 20.7 71.8688 20.895 72.3975 21.1088C73.7663 21.6938 74.4675 21.8888 75.7163 22.0088C77.085 22.1438 79.5638 21.99 79.8563 21.7538C80.0138 21.6188 80.4413 21.5963 81.3413 21.675C82.5338 21.7538 83.0213 21.87 85.8525 22.6313C87.495 23.0813 88.6463 23.04 90.6 22.515C91.5 22.26 92.6325 22.0088 93.1013 21.9488C93.9038 21.87 94.0575 21.9113 95.31 22.4775C97.3013 23.3775 98.3588 23.9438 98.9438 24.4688C99.5288 24.975 99.6075 24.975 101.014 24.8588L101.018 24.8438ZM89.8838 21.4275L91.0763 20.8013L91.0388 19.59C91.02 18.75 90.9788 17.9288 90.9413 17.1113L90.8438 15.8625L89.6513 16.7813C88.9463 17.3288 88.2638 17.7375 87.9713 17.7975C87.1125 17.955 82.875 17.7975 82.4813 17.5838C81.9567 17.1963 81.4662 16.7647 81.015 16.2938L79.92 15.18L79.9013 15.8438C79.9013 16.1963 79.8638 16.8 79.785 17.1713C79.6875 17.8763 79.6875 17.895 80.4488 18.8513C80.8575 19.38 81.1913 19.8488 81.1913 19.905C81.1913 20.2763 86.835 22.035 88.1063 22.0538C88.515 22.0538 89.025 21.8775 89.8838 21.4275ZM87.6188 16.9913C89.025 16.7175 89.7075 15.7013 90.2363 13.125C90.7838 10.35 91.0575 5.99625 90.8025 4.14C90.5663 2.46 88.6913 1.7175 85.1175 1.83375C82.89 1.9125 81.9713 2.12625 81.21 2.77125C80.7413 3.16125 80.7413 3.2025 80.5275 5.055C80.1375 8.61 80.7225 13.6688 81.7388 15.5625C82.2263 16.4813 82.6575 16.8113 83.5538 16.9688C84.57 17.145 86.7375 17.145 87.615 16.9875L87.6188 16.9913Z" fill="black"/>

</g>






</svg>
