<svg width="120" height="119" viewBox="0 0 120 119" fill="none" xmlns="http://www.w3.org/2000/svg">

    <g id="css">
        <path d="M22.1325 101.154L13.71 7.4375H106.29L97.8562 101.139L59.9437 111.562L22.1325 101.154Z" fill="#1572B6"/>
        <path d="M60 103.597L90.6375 95.174L97.845 15.1019H60V103.597Z" fill="#33A9DC"/>
        <path d="M60 49.054H75.3375L76.395 37.2842H60V25.7896H89.0625L88.785 28.8724L85.9387 60.5487H60V49.054Z"
              fill="white"/>
        <path d="M60.0712 78.9045L60.0187 78.9193L47.1112 75.4609L46.2862 66.2942H34.65L36.2737 84.3413L60.015 90.8788L60.0712 90.864V78.9045Z"
              fill="#EBEBEB"/>
        <path d="M74.3512 60.0615L72.9563 75.4534L60.03 78.9119V90.8714L83.79 84.3412L83.9663 82.4001L85.98 60.0615H74.3512Z"
              fill="white"/>
        <path d="M60.0413 25.7896V37.2842H32.0438L31.8113 34.6997L31.2825 28.8724L31.005 25.7896H60.0413ZM60 49.054V60.5487H47.2538L47.0213 57.9642L46.4963 52.1369L46.2188 49.054H60Z"
              fill="#EBEBEB"/>
    </g>

    <g id="git">
        <path d="M103.02 47.8217L57.1758 1.98013C54.5372 -0.660044 50.2552 -0.660044 47.6134 1.98013L38.0937 11.4999L50.1699 23.5761C52.9762 22.6278 56.1943 23.264 58.4313 25.501C60.6789 27.7523 61.3106 30.9979 60.3393 33.8132L71.9775 45.4518C74.7932 44.4818 78.0421 45.1093 80.291 47.3619C83.434 50.5037 83.434 55.5958 80.291 58.7396C77.1471 61.8839 72.055 61.8839 68.9095 58.7396C66.5454 56.373 65.9613 52.901 67.1582 49.9885L56.3046 39.135L56.3034 67.697C57.0902 68.086 57.8088 68.5999 58.4313 69.2187C61.5743 72.3605 61.5743 77.453 58.4313 80.5993C55.2874 83.7419 50.1929 83.7419 47.0535 80.5993C43.9105 77.453 43.9105 72.3609 47.0535 69.2191C47.8067 68.4655 48.7019 67.8687 49.6871 67.4632V38.635C48.7004 38.2322 47.8048 37.635 47.0535 36.8791C44.6722 34.501 44.0996 31.0069 45.3198 28.0829L33.4154 16.1773L1.98105 47.6096C-0.660352 50.2522 -0.660352 54.5347 1.98105 57.1753L47.8259 103.018C50.4652 105.658 54.7464 105.658 57.3891 103.018L103.019 57.3881C105.66 54.7467 105.66 50.4618 103.019 47.8217"
              fill="#DE4C36"/>
    </g>


    <g id="github">
        <path fill-rule="evenodd" clip-rule="evenodd"
              d="M44 0C19.69 0 0 19.69 0 44C0 63.47 12.595 79.915 30.085 85.745C32.285 86.13 33.11 84.81 33.11 83.655C33.11 82.61 33.055 79.145 33.055 75.46C22 77.495 19.14 72.765 18.26 70.29C17.765 69.025 15.62 65.12 13.75 64.075C12.21 63.25 10.01 61.215 13.695 61.16C17.16 61.105 19.635 64.35 20.46 65.67C24.42 72.325 30.745 70.455 33.275 69.3C33.66 66.44 34.815 64.515 36.08 63.415C26.29 62.315 16.06 58.52 16.06 41.69C16.06 36.905 17.765 32.945 20.57 29.865C20.13 28.765 18.59 24.255 21.01 18.205C21.01 18.205 24.695 17.05 33.11 22.715C36.63 21.725 40.37 21.23 44.11 21.23C47.85 21.23 51.59 21.725 55.11 22.715C63.525 16.995 67.21 18.205 67.21 18.205C69.63 24.255 68.09 28.765 67.65 29.865C70.455 32.945 72.16 36.85 72.16 41.69C72.16 58.575 61.875 62.315 52.085 63.415C53.68 64.79 55.055 67.43 55.055 71.555C55.055 77.44 55 82.17 55 83.655C55 84.81 55.825 86.185 58.025 85.745C66.7597 82.796 74.3497 77.1822 79.7268 69.6937C85.1039 62.2052 87.9974 53.219 88 44C88 19.69 68.31 0 44 0Z"
              fill="black"/>
    </g>


    <g id="html">
        <path d="M22.1325 102.004L13.7063 7.5H106.294L97.8562 101.989L59.9438 112.5L22.1325 102.004Z" fill="#E44F26"/>
        <path d="M60 104.468L90.6375 95.9738L97.845 15.2288H60V104.468Z" fill="#F1662A"/>
        <path d="M60 50.2762H44.6625L43.605 38.4075H60V26.8162H30.9375L31.215 29.9287L34.0613 61.8675H60V50.2762ZM60 80.3775L59.9475 80.3925L47.04 76.9087L46.215 67.665H34.5787L36.2025 85.86L59.9475 92.4525L60 92.4375V80.3775Z"
              fill="#EBEBEB"/>
        <path d="M59.9587 50.2762V61.8675H74.2312L72.8887 76.9012L59.9587 80.3887V92.4487L83.7225 85.86L83.895 83.9025L86.6175 53.3887L86.9025 50.2762H59.9587ZM59.9587 26.8162V38.4075H87.9562L88.1887 35.805L88.7175 29.9287L88.995 26.8162H59.9587Z"
              fill="white"/>
    </g>


    <g id="javascript">
        <path d="M7.5 7.5H112.5V112.5H7.5V7.5Z" fill="#F5DE19"/>
        <path d="M78.0337 89.5312C78.9284 91.3485 80.3183 92.8759 82.0434 93.9375C83.7684 94.9991 85.7583 95.5515 87.7837 95.5313C91.8712 95.5313 94.485 93.4875 94.485 90.6562C94.485 87.2812 91.8 86.0738 87.3 84.105L84.8325 83.0475C77.7075 80.0138 72.9825 76.215 72.9825 68.1825C72.9825 60.7838 78.6075 55.1475 87.4312 55.1475C90.2876 54.9412 93.1415 55.5805 95.637 56.9856C98.1324 58.3907 100.159 60.4994 101.464 63.0488L93.75 67.98C93.2476 66.716 92.3728 65.6345 91.2416 64.879C90.1104 64.1236 88.7763 63.7298 87.4162 63.75C86.8228 63.6906 86.2236 63.7555 85.6566 63.9404C85.0897 64.1254 84.5675 64.4265 84.1233 64.8244C83.6792 65.2224 83.3228 65.7085 83.0768 66.2518C82.8309 66.7951 82.7009 67.3837 82.695 67.98C82.695 70.9388 84.5287 72.1388 88.7625 73.98L91.23 75.0375C99.615 78.6338 104.355 82.2975 104.355 90.5363C104.355 99.42 97.3762 104.287 88.005 104.287C84.3536 104.52 80.713 103.691 77.5223 101.901C74.3317 100.11 71.7274 97.4342 70.0237 94.1963L78.0337 89.5312ZM43.1775 90.3863C44.7262 93.135 46.1362 95.46 49.5262 95.46C52.7662 95.46 54.8137 94.1925 54.8137 89.2612V55.71H64.68V89.3925C64.68 99.6075 58.68 104.257 49.9462 104.257C46.8591 104.426 43.7931 103.657 41.1513 102.051C38.5096 100.444 36.4157 98.0761 35.145 95.2575L43.1775 90.3863Z"
              fill="black"/>
    </g>


    <g id="react">
        <path d="M92.9008 32.7027C91.6983 32.2886 90.4857 31.905 89.2639 31.5522C89.4692 30.7106 89.6581 29.8791 89.8258 29.0622C92.5791 15.6483 90.7792 4.84172 84.6313 1.28369C78.7368 -2.12728 69.0969 1.42943 59.3611 9.93336C58.4016 10.773 57.4634 11.6368 56.5474 12.5239C55.9342 11.934 55.3101 11.3555 54.6756 10.7888C44.472 1.6961 34.2445 -2.13614 28.1033 1.43209C22.2141 4.85368 20.4703 15.0126 22.949 27.7253C23.1956 28.9844 23.4741 30.2369 23.7841 31.4818C22.3364 31.8947 20.9395 32.3341 19.6026 32.8019C7.63967 36.9881 0 43.5482 0 50.3528C0 57.3808 8.20153 64.4299 20.6614 68.7043C21.6715 69.0494 22.6901 69.3692 23.7161 69.6633C23.3829 71.0041 23.0871 72.354 22.829 73.7113C20.4659 86.2034 22.3112 96.1222 28.1845 99.5221C34.2507 103.033 44.4322 99.4247 54.3458 90.7267C55.1497 90.0196 55.9359 89.2924 56.7036 88.5459C57.6956 89.5065 58.7141 90.4392 59.7579 91.3429C69.3612 99.6364 78.8454 102.985 84.713 99.5762C90.7734 96.0549 92.7432 85.3994 90.186 72.4355C89.9845 71.4199 89.7586 70.4093 89.5084 69.4046C90.2235 69.192 90.9252 68.9732 91.6094 68.7455C104.563 64.4384 112.991 57.4747 112.991 50.3528C112.991 43.5234 105.104 36.919 92.9008 32.7027ZM90.0915 64.1473C89.4736 64.3524 88.8398 64.5504 88.1936 64.7431C86.7636 60.1995 84.8339 55.3683 82.4721 50.3763C84.7258 45.5035 86.5813 40.7339 87.9712 36.2199C89.1271 36.5557 90.2486 36.9097 91.33 37.2831C101.786 40.8961 108.164 46.2371 108.164 50.3528C108.164 54.7366 101.276 60.4276 90.0915 64.1473ZM85.4509 73.3764C86.5817 79.1086 86.7428 84.2915 85.9938 88.3435C85.3212 91.9843 83.9679 94.4114 82.2943 95.3838C78.7337 97.4525 71.1188 94.7636 62.9062 87.6706C61.9354 86.8304 60.988 85.9633 60.0651 85.0703C63.2492 81.5756 66.431 77.513 69.5365 73.0008C74.9989 72.5144 80.1594 71.7188 84.8392 70.633C85.0646 71.5425 85.2686 72.4572 85.4509 73.3764ZM38.521 95.0263C35.0421 96.2591 32.2712 96.2946 30.5962 95.3253C27.0321 93.2623 25.5504 85.298 27.5715 74.615C27.8117 73.3526 28.0868 72.0972 28.3964 70.8501C33.0246 71.8778 38.1476 72.6167 43.6228 73.0623C46.7494 77.4776 50.0231 81.5357 53.3223 85.0893C52.6212 85.7702 51.9034 86.4337 51.1698 87.0792C46.7856 90.9252 42.3927 93.6539 38.521 95.0263ZM22.223 64.1203C16.7133 62.2301 12.1633 59.7738 9.04455 57.0933C6.24185 54.6848 4.82726 52.2931 4.82726 50.3528C4.82726 46.2234 10.961 40.9563 21.1915 37.3766C22.4331 36.9424 23.7324 36.5327 25.0808 36.1482C26.495 40.764 28.3496 45.5903 30.5878 50.4707C28.3205 55.4232 26.4394 60.3266 25.0115 64.997C24.075 64.7277 23.1452 64.4354 22.223 64.1203ZM27.6862 26.7946C25.5628 15.903 26.973 7.687 30.522 5.62491C34.3019 3.42861 42.6606 6.56005 51.4708 14.4115C52.0453 14.9246 52.6105 15.4482 53.1661 15.9818C49.8832 19.5199 46.6395 23.548 43.5407 27.9371C38.2266 28.4314 33.1398 29.2252 28.463 30.2888C28.1749 29.131 27.9159 27.966 27.6862 26.795V26.7946ZM76.4254 38.8738C75.3207 36.9588 74.1751 35.0679 72.9893 33.2023C76.5944 33.6599 80.0486 34.2673 83.2922 35.0097C82.3185 38.1425 81.1048 41.4175 79.6761 44.7753C78.6317 42.7866 77.548 40.8191 76.4254 38.8738ZM56.5496 19.4442C58.7759 21.8651 61.0057 24.5677 63.1988 27.5003C58.7498 27.2894 54.2934 27.2885 49.8443 27.4976C52.0397 24.5921 54.2885 21.893 56.5496 19.4442ZM36.5463 38.9071C35.4377 40.8366 34.3742 42.7919 33.3565 44.7713C31.9512 41.4254 30.7485 38.1354 29.7664 34.9583C32.9902 34.2345 36.428 33.6427 40.0102 33.1935C38.8111 35.0704 37.6562 36.9753 36.5463 38.9066V38.9071ZM40.113 67.8569C36.4121 67.4422 32.9226 66.881 29.6998 66.1766C30.6973 62.9429 31.9265 59.5828 33.3623 56.1652C34.3839 58.1461 35.4519 60.1025 36.5653 62.033C37.7102 64.0175 38.8957 65.9613 40.113 67.8569ZM56.6829 81.6026C54.3948 79.1255 52.113 76.3847 49.8845 73.4371C52.0481 73.5222 54.2536 73.5656 56.4953 73.5656C58.7984 73.5656 61.075 73.5137 63.3158 73.4136C61.1156 76.4144 58.8942 79.1591 56.6829 81.6026ZM79.7215 55.9907C81.2319 59.4459 82.5048 62.7883 83.5155 65.9667C80.2397 66.7171 76.7026 67.3213 72.9756 67.77C74.1699 65.8699 75.3263 63.9461 76.4443 61.9998C77.581 60.0214 78.6737 58.0179 79.7215 55.9907ZM72.2633 59.5793C70.5517 62.5634 68.7439 65.4908 66.8428 68.357C63.399 68.6018 59.9477 68.7234 56.4953 68.7216C52.9789 68.7216 49.5588 68.6117 46.2653 68.3973C44.3145 65.5378 42.4722 62.6052 40.7424 59.6059H40.7428C39.0211 56.6224 37.413 53.5744 35.9218 50.4685C37.4092 47.3618 39.0125 44.3124 40.7283 41.3266L40.7278 41.3271C42.443 38.3406 44.2705 35.4206 46.2066 32.5733C49.5667 32.3181 53.0125 32.1853 56.4949 32.1853H56.4953C59.9936 32.1853 63.4438 32.3195 66.8031 32.5764C68.7195 35.4194 70.5354 38.3294 72.2474 41.3009C73.9689 44.2801 75.5934 47.3146 77.1183 50.3998C75.6091 53.5165 73.9897 56.5783 72.2633 59.5793ZM82.2206 5.4805C86.004 7.67061 87.4755 16.5023 85.0983 28.0841C84.9464 28.823 84.7761 29.5756 84.5907 30.3389C79.9025 29.2527 74.8122 28.4452 69.4826 27.9433C66.378 23.5059 63.1609 19.4717 59.9314 15.9792C60.7778 15.1603 61.6443 14.3627 62.5302 13.5871C70.8721 6.30135 78.6684 3.42462 82.2206 5.4805ZM56.4953 40.2263C62.0676 40.2263 66.585 44.7602 66.585 50.3528C66.585 55.9455 62.0676 60.4794 56.4953 60.4794C50.923 60.4794 46.4056 55.9455 46.4056 50.3528C46.4056 44.7602 50.923 40.2263 56.4953 40.2263Z"
              fill="#00D8FF"/>
    </g>


    <g id="redux">
        <path d="M72.6971 69.5627C76.5688 69.1619 79.5061 65.8242 79.3725 61.8184C79.2393 57.8131 75.9012 54.6086 71.8959 54.6086H71.6291C67.4897 54.7422 64.2856 58.2135 64.4193 62.3525C64.5529 64.3553 65.3537 66.091 66.5553 67.2926C62.016 76.2385 55.0734 82.7807 44.6594 88.2549C37.5832 91.9934 30.2402 93.3287 22.8971 92.3943C16.8889 91.593 12.216 88.923 9.27827 84.5164C5.00614 77.9742 4.60573 70.8975 8.21065 63.8213C10.7475 58.7475 14.7525 55.009 17.2893 53.1398C16.7553 51.4041 15.9541 48.4668 15.5537 46.3307C-3.80574 60.35 -1.80287 79.3094 4.07172 88.2549C8.47745 94.9311 17.4229 99.0701 27.3029 99.0701C29.9729 99.0701 32.643 98.8029 35.3135 98.1357C52.4033 94.7975 65.3541 84.65 72.6971 69.5627ZM96.1955 53.0066C86.0483 41.1234 71.0951 34.5811 54.0053 34.5811H51.8693C50.6676 32.1779 48.1307 30.5754 45.327 30.5754H45.0598C40.9213 30.709 37.7172 34.1803 37.8504 38.3197C37.984 42.325 41.3217 45.5295 45.327 45.5295H45.5938C48.5311 45.3959 51.068 43.5266 52.1361 40.9898H54.5393C64.6865 40.9898 74.2992 43.927 82.9779 49.6684C89.6533 54.0746 94.4598 59.816 97.1299 66.7586C99.3996 72.3664 99.266 77.8406 96.8627 82.5139C93.1246 89.5902 86.8496 93.4623 78.5717 93.4623C73.2311 93.4623 68.1578 91.8598 65.4873 90.6582C64.0188 91.9934 61.3484 94.1295 59.4791 95.4652C65.2205 98.1352 71.0951 99.6041 76.7025 99.6041C89.5197 99.6041 98.9992 92.5275 102.604 85.4512C106.476 77.707 106.209 64.3553 96.1955 53.0066ZM28.3709 71.832C28.5045 75.8377 31.8422 79.0418 35.8475 79.0418H36.1147C40.2537 78.9086 43.4578 75.4369 43.3242 71.2979C43.191 67.2922 39.8529 64.0881 35.8475 64.0881H35.5807C35.3135 64.0881 34.9127 64.0881 34.6463 64.2213C29.1721 55.1422 26.9025 45.2623 27.7037 34.5807C28.2373 26.5697 30.9078 19.6266 35.5807 13.8852C39.4525 8.94508 46.9291 6.5418 52.0029 6.40861C66.1549 6.14139 72.1627 23.7656 72.5635 30.8422C74.2992 31.2426 77.2365 32.1775 79.2393 32.8451C77.6369 11.2156 64.2856 0 51.4688 0C39.4524 0 28.3709 8.67869 23.9647 21.4963C17.8234 38.5865 21.8287 55.009 29.3053 67.9602C28.6381 68.8947 28.2373 70.3635 28.3709 71.8324V71.832Z"
              fill="#764ABC"/>
    </g>


    <g id="sass">
        <path d="M100.463 49.8709C96.3928 49.8917 92.8551 50.8637 89.8932 52.3005C88.806 50.1663 87.7193 48.265 87.5278 46.8703C87.3144 45.2436 87.0589 44.2503 87.3143 42.3064C87.5703 40.3625 88.721 37.5944 88.6995 37.3832C88.6785 37.1721 88.4436 36.1788 86.0996 36.158C83.7556 36.1367 81.7311 36.6016 81.4966 37.2142C81.2622 37.8268 80.8148 39.2215 80.5163 40.658C80.1114 42.7713 75.8284 50.314 73.3779 54.2653C72.5891 52.7233 71.9072 51.3707 71.7578 50.2932C71.5448 48.6665 71.2889 47.6732 71.5448 45.7293C71.8007 43.7854 72.9515 41.0177 72.93 40.8061C72.9085 40.595 72.6741 39.6017 70.3301 39.5809C67.9856 39.5596 65.9611 40.0245 65.7271 40.6371C65.4927 41.2502 65.2367 42.6866 64.7468 44.0813C64.2565 45.476 58.5667 58.0693 57.075 61.3227C56.4722 62.6396 55.8399 63.9429 55.1784 65.2318C55.1784 65.2318 55.157 65.2953 55.093 65.4008C54.8852 65.805 54.6722 66.2065 54.4541 66.6052V66.6261C54.1342 67.197 53.7932 67.7249 53.6228 67.7249C53.4948 67.7249 53.2604 66.2038 53.6653 64.133C54.5176 59.7594 56.5421 52.9558 56.5211 52.7233C56.5211 52.5964 56.9046 51.4133 55.1999 50.8003C53.5373 50.1876 52.9409 51.2017 52.7915 51.2017C52.6425 51.2017 52.5356 51.5611 52.5356 51.5611C52.5356 51.5611 54.3901 43.9123 48.9983 43.9123C45.6315 43.9123 40.9856 47.5677 38.6841 50.8637C36.0678 52.2754 33.4537 53.6911 30.8418 55.1108C29.5851 55.8082 28.2849 56.5055 27.0701 57.1603C26.9847 57.076 26.8997 56.97 26.8142 56.8857C20.2932 49.9765 8.2318 45.0954 8.74319 35.8199C8.93513 32.4392 10.1069 23.5647 31.9076 12.789C49.8506 4.02008 64.129 6.44974 66.6009 11.8378C70.1382 19.5292 58.9506 33.8126 40.4102 35.8829C33.3353 36.665 29.6271 33.9603 28.6898 32.9462C27.7095 31.8895 27.5601 31.8261 27.1976 32.0377C26.6012 32.3549 26.9847 33.3055 27.1976 33.8547C27.752 35.2911 30.032 37.8268 33.8892 39.0738C37.2989 40.1722 45.5886 40.7853 55.6258 36.9396C66.8564 32.629 75.6364 20.6489 73.058 10.6126C70.4791 0.428159 53.4308 -2.93131 37.2989 2.75224C27.7095 6.13346 17.3098 11.4577 9.82995 18.3882C0.943427 26.6283 -0.463244 33.7913 0.112129 36.7919C2.17964 47.4408 16.9904 54.3713 22.9146 59.5057C22.6161 59.6747 22.3387 59.8229 22.1047 59.9497C19.1424 61.4075 7.84791 67.26 5.03502 73.4511C1.83871 80.4659 5.54687 85.4951 7.99735 86.1707C15.6052 88.2628 23.426 84.5019 27.624 78.2895C31.8221 72.0776 31.3107 64.0061 29.3716 60.3086C29.3502 60.2665 29.3291 60.2239 29.2862 60.1817C30.0535 59.7381 30.8418 59.2732 31.6091 58.8296C33.0194 58.003 34.4476 57.2068 35.8927 56.4417C35.1679 58.4069 34.635 60.7522 34.3795 64.133C34.0596 68.1055 35.7003 73.2607 37.8528 75.2889C38.8121 76.1771 39.9413 76.1979 40.6661 76.1979C43.1806 76.1979 44.3103 74.1271 45.5676 71.6762C47.1017 68.676 48.4869 65.1897 48.4869 65.1897C48.4869 65.1897 46.7608 74.6133 51.4492 74.6133C53.1539 74.6133 54.88 72.4157 55.6473 71.296V71.3168C55.6473 71.3168 55.6898 71.2534 55.7753 71.1057C55.9458 70.8311 56.0522 70.6616 56.0522 70.6616V70.6199C56.7341 69.4364 58.2687 66.753 60.5487 62.2947C63.4896 56.5477 66.324 49.3638 66.324 49.3638C66.324 49.3638 66.5799 51.1174 67.4532 54.0333C67.9651 55.7448 69.0299 57.6252 69.8827 59.4422C69.2008 60.3934 68.7744 60.9212 68.7744 60.9212L68.7959 60.9425C68.2416 61.6607 67.6452 62.4424 66.9843 63.2036C64.6614 65.95 61.8914 69.0988 61.5075 70.0069C61.0597 71.0844 61.1666 71.8665 62.0194 72.5004C62.6373 72.9653 63.7451 73.0283 64.8748 72.9653C66.9633 72.8171 68.4335 72.3101 69.1579 71.9934C70.2876 71.5919 71.6088 70.9788 72.8446 70.0703C75.125 68.401 76.5098 66.0135 76.3823 62.8656C76.3183 61.1329 75.7429 59.4001 75.0396 57.7729C75.253 57.4775 75.4445 57.1816 75.6579 56.8857C79.2591 51.6666 82.051 45.9405 82.051 45.9405C82.051 45.9405 82.3069 47.6941 83.1803 50.6104C83.6066 52.0894 84.4804 53.6953 85.2473 55.2585C81.859 57.9845 79.7705 61.1537 79.0247 63.2245C77.6824 67.0702 78.7262 68.8024 80.7083 69.2039C81.6031 69.3942 82.8818 68.9715 83.8196 68.57C85.0129 68.1898 86.4195 67.5351 87.7622 66.5627C90.0427 64.8938 92.2372 62.5693 92.1093 59.4214C92.0453 57.9845 91.6619 56.5685 91.129 55.1951C94.0059 54.0125 97.714 53.3572 102.445 53.9064C112.589 55.0895 114.592 61.3649 114.208 64.0066C113.824 66.6474 111.693 68.0843 110.991 68.5279C110.287 68.9719 110.053 69.1196 110.117 69.4364C110.202 69.9013 110.543 69.8804 111.14 69.7957C111.971 69.648 116.467 67.6615 116.659 62.8017C116.979 56.5898 111.012 49.8075 100.463 49.8709ZM22.2112 76.0289C18.844 79.6629 14.156 81.0364 12.1314 79.8746C9.95792 78.6276 10.8102 73.2607 14.9443 69.4155C17.4588 67.0702 20.6981 64.8933 22.8506 63.5625C23.3405 63.2666 24.0653 62.8443 24.9391 62.316C25.0881 62.2312 25.1736 62.1891 25.1736 62.1891L25.6849 61.8719C27.1976 67.3656 25.7489 72.2045 22.2112 76.0289ZM46.7183 59.5057C45.5461 62.3373 43.0956 69.5845 41.6039 69.1831C40.3252 68.845 39.5364 63.3514 41.348 57.9211C42.2643 55.1951 44.2034 51.9412 45.3331 50.6738C47.1657 48.6452 49.1903 47.9687 49.6802 48.7934C50.2985 49.8709 47.4427 57.7308 46.7183 59.5057ZM66.9418 69.0983C66.4515 69.3521 65.983 69.5211 65.7696 69.3942C65.6206 69.3095 65.983 68.9715 65.983 68.9715C65.983 68.9715 68.519 66.2672 69.5203 65.0415C70.0961 64.3233 70.7775 63.4782 71.5023 62.5271V62.8017C71.5023 66.0348 68.348 68.2111 66.9414 69.0983H66.9418ZM82.5409 65.5699C82.1785 65.3161 82.2425 64.471 83.4572 61.8298C83.9261 60.7944 85.0339 59.0621 86.9309 57.3928C87.1439 58.0688 87.2933 58.724 87.2719 59.3367C87.2504 63.4148 84.31 64.9359 82.5409 65.5699Z"
              fill="#CD6799"/>
    </g>


    <g id="tailwind">
        <path d="M36.8438 56.0844C40.6646 40.801 50.2167 33.1594 65.5 33.1594C88.425 33.1594 91.2906 50.3531 102.753 53.2187C110.395 55.1292 117.081 52.2635 122.812 44.6219C118.992 59.9052 109.44 67.5469 94.1562 67.5469C71.2313 67.5469 68.3656 50.3531 56.9031 47.4875C49.2615 45.5771 42.575 48.4427 36.8438 56.0844ZM8.1875 90.4719C12.0083 75.1885 21.5604 67.5469 36.8438 67.5469C59.7687 67.5469 62.6344 84.7406 74.0969 87.6062C81.7385 89.5167 88.425 86.651 94.1562 79.0094C90.3354 94.2927 80.7833 101.934 65.5 101.934C42.575 101.934 39.7094 84.7406 28.2469 81.875C20.6052 79.9646 13.9187 82.8302 8.1875 90.4719Z"
              fill="#44A8B3"/>
    </g>


    <g id="vscode">
        <path d="M101.535 17.605L81.354 7.88899C80.2143 7.33948 78.9319 7.15814 77.6845 7.37011C76.4372 7.58208 75.2867 8.17686 74.3925 9.07199L8.32998 69.3C7.52845 70.0273 7.04865 71.0432 6.99614 72.1243C6.94363 73.2053 7.32271 74.2629 8.04998 75.0645C8.13748 75.159 8.22498 75.25 8.31948 75.334L13.713 80.234C14.4178 80.8754 15.3249 81.2497 16.277 81.2919C17.229 81.3341 18.1657 81.0416 18.9245 80.465L98.497 20.125C99.098 19.6689 99.8144 19.3897 100.566 19.3186C101.317 19.2476 102.073 19.3877 102.749 19.7231C103.424 20.0585 103.993 20.5758 104.391 21.217C104.789 21.8581 105 22.5975 105 23.352V23.1175C105 21.9656 104.675 20.8372 104.062 19.862C103.449 18.8868 102.573 18.1045 101.535 17.605Z"
              fill="#0065A9"/>
        <path d="M101.535 94.395L81.354 104.115C80.214 104.662 78.9319 104.843 77.6849 104.631C76.4379 104.419 75.2875 103.825 74.3925 102.932L8.32998 42.7C7.52845 41.9727 7.04865 40.9568 6.99614 39.8758C6.94363 38.7947 7.32271 37.7371 8.04998 36.9355C8.13748 36.841 8.22498 36.75 8.31948 36.666L13.713 31.766C14.4185 31.1219 15.3277 30.7459 16.2821 30.7037C17.2365 30.6615 18.1754 30.9557 18.935 31.535L98.497 91.875C99.098 92.3311 99.8144 92.6104 100.566 92.6814C101.317 92.7524 102.073 92.6123 102.749 92.2769C103.424 91.9415 103.993 91.4242 104.391 90.783C104.789 90.1419 105 89.4025 105 88.648V88.9C104.996 90.0488 104.669 91.1733 104.057 92.1451C103.444 93.1168 102.57 93.8965 101.535 94.395Z"
              fill="#007ACC"/>
        <path d="M81.354 104.114C80.214 104.662 78.9319 104.843 77.6849 104.631C76.4379 104.419 75.2875 103.825 74.3925 102.931C74.8951 103.428 75.5329 103.764 76.2261 103.899C76.9192 104.034 77.6368 103.962 78.289 103.691C78.9411 103.42 79.4988 102.963 79.8921 102.376C80.2854 101.79 80.4969 101.1 80.5 100.394V11.606C80.5006 10.8965 80.2906 10.2028 79.8966 9.61274C79.5026 9.02271 78.9423 8.56288 78.2868 8.29152C77.6312 8.02016 76.9099 7.94946 76.2141 8.0884C75.5184 8.22734 74.8795 8.56965 74.3785 9.07197C75.2728 8.17717 76.4231 7.58235 77.6702 7.3698C78.9174 7.15724 80.1997 7.33744 81.34 7.88547L101.517 17.5875C102.559 18.0845 103.438 18.8657 104.054 19.8411C104.67 20.8165 104.998 21.9463 105 23.1V88.9C105 90.0528 104.675 91.1822 104.061 92.1581C103.447 93.134 102.571 93.9167 101.531 94.416L81.354 104.114Z"
              fill="#1F9CF0"/>
    </g>

    <g id="instagram">
        <path d="M24.75 18.75C24.75 19.9367 24.3981 21.0967 23.7388 22.0834C23.0795 23.0701 22.1425 23.8392 21.0461 24.2933C19.9497 24.7474 18.7433 24.8662 17.5795 24.6347C16.4156 24.4032 15.3465 23.8318 14.5074 22.9926C13.6682 22.1535 13.0968 21.0844 12.8653 19.9205C12.6338 18.7567 12.7526 17.5503 13.2067 16.4539C13.6608 15.3575 14.4299 14.4205 15.4166 13.7612C16.4033 13.1019 17.5633 12.75 18.75 12.75C20.3407 12.7518 21.8658 13.3846 22.9906 14.5094C24.1154 15.6342 24.7482 17.1593 24.75 18.75ZM37.5 10.5V27C37.4968 29.7838 36.3896 32.4527 34.4211 34.4211C32.4527 36.3896 29.7838 37.4968 27 37.5H10.5C7.7162 37.4968 5.04733 36.3896 3.07889 34.4211C1.11044 32.4527 0.00317604 29.7838 0 27V10.5C0.00317604 7.7162 1.11044 5.04733 3.07889 3.07889C5.04733 1.11044 7.7162 0.00317604 10.5 0H27C29.7838 0.00317604 32.4527 1.11044 34.4211 3.07889C36.3896 5.04733 37.4968 7.7162 37.5 10.5ZM27.75 18.75C27.75 16.97 27.2222 15.2299 26.2332 13.7499C25.2443 12.2698 23.8387 11.1163 22.1942 10.4351C20.5496 9.7539 18.74 9.57567 16.9942 9.92293C15.2484 10.2702 13.6447 11.1274 12.386 12.386C11.1274 13.6447 10.2702 15.2484 9.92293 16.9942C9.57567 18.74 9.7539 20.5496 10.4351 22.1942C11.1163 23.8387 12.2698 25.2443 13.7499 26.2332C15.2299 27.2222 16.97 27.75 18.75 27.75C21.1361 27.7473 23.4238 26.7982 25.111 25.111C26.7982 23.4238 27.7473 21.1361 27.75 18.75ZM30.75 9C30.75 8.55499 30.618 8.11998 30.3708 7.74997C30.1236 7.37996 29.7722 7.09157 29.361 6.92127C28.9499 6.75097 28.4975 6.70642 28.061 6.79323C27.6246 6.88005 27.2237 7.09434 26.909 7.40901C26.5943 7.72368 26.38 8.12459 26.2932 8.56105C26.2064 8.9975 26.251 9.4499 26.4213 9.86104C26.5916 10.2722 26.88 10.6236 27.25 10.8708C27.62 11.118 28.055 11.25 28.5 11.25C29.0967 11.25 29.669 11.0129 30.091 10.591C30.5129 10.169 30.75 9.59674 30.75 9Z" fill="#25282B"/></g>

    <g id="linkedin1">
        <path d="M0 2.72175C0 1.21837 1.24925 0 2.79062 0H35.2094C36.7507 0 38 1.21837 38 2.72175V35.2783C38 36.7816 36.7507 38 35.2094 38H2.79062C1.24925 38 0 36.7816 0 35.2783V2.72175ZM11.7396 31.8108V14.6514H6.03725V31.8108H11.7396ZM8.88963 12.3073C10.8775 12.3073 12.1149 10.9915 12.1149 9.34325C12.0792 7.65938 10.8799 6.37925 8.92762 6.37925C6.97538 6.37925 5.7 7.66175 5.7 9.34325C5.7 10.9915 6.93738 12.3073 8.85163 12.3073H8.88963ZM20.5461 31.8108V22.2276C20.5461 21.7146 20.5841 21.2016 20.7361 20.8359C21.147 19.8123 22.0851 18.7506 23.6621 18.7506C25.726 18.7506 26.5501 20.3229 26.5501 22.6314V31.8108H32.2525V21.9688C32.2525 16.6962 29.4405 14.2453 25.688 14.2453C22.6623 14.2453 21.3061 15.9078 20.5461 17.0786V17.138H20.5081C20.5207 17.1182 20.5334 17.0984 20.5461 17.0786V14.6514H14.8461C14.9174 16.2616 14.8461 31.8108 14.8461 31.8108H20.5461Z" fill="#25282B"/>
    </g>

    <g id="mail1">
        <path fill-rule="evenodd" clip-rule="evenodd" d="M0.13125 4.14667C0.395898 2.96865 1.04647 1.91683 1.97642 1.16349C2.90637 0.410143 4.06057 -8.13185e-05 5.25 1.2091e-08H36.75C37.9394 -8.13185e-05 39.0936 0.410143 40.0236 1.16349C40.9535 1.91683 41.6041 2.96865 41.8687 4.14667L21 17.104L0.13125 4.14667ZM0 7.192V26.136L15.2329 16.648L0 7.192ZM17.7476 18.2133L0.501375 28.952C0.927482 29.8648 1.60001 30.6358 2.44068 31.1754C3.28135 31.715 4.25558 32.001 5.25 32H36.75C37.7443 32.0002 38.7181 31.7136 39.5583 31.1736C40.3985 30.6335 41.0705 29.8622 41.496 28.9493L24.2498 18.2107L21 20.2293L17.7476 18.2107V18.2133ZM26.7671 16.6507L42 26.136V7.192L26.7671 16.648V16.6507Z" fill="#25282B"/>
    </g>


</svg>
