<svg width="163" height="32" viewBox="0 0 163 32" fill="none" xmlns="http://www.w3.org/2000/svg">
<path d="M2.718 22C2.454 22 2.232 21.91 2.052 21.73C1.884 21.55 1.8 21.328 1.8 21.064V8.878C1.8 8.602 1.884 8.38 2.052 8.212C2.232 8.032 2.454 7.942 2.718 7.942C3.006 7.942 3.246 8.056 3.438 8.284L11.286 18.724V8.878C11.286 8.602 11.376 8.38 11.556 8.212C11.736 8.032 11.958 7.942 12.222 7.942C12.498 7.942 12.72 8.032 12.888 8.212C13.056 8.38 13.14 8.602 13.14 8.878V21.064C13.14 21.328 13.056 21.55 12.888 21.73C12.72 21.91 12.498 22 12.222 22C12.102 22 11.97 21.976 11.826 21.928C11.694 21.868 11.586 21.784 11.502 21.676L3.654 11.236V21.064C3.654 21.328 3.564 21.55 3.384 21.73C3.216 21.91 2.994 22 2.718 22ZM20.6654 22.072C19.7894 22.072 19.0034 21.856 18.3074 21.424C17.6114 20.98 17.0594 20.386 16.6514 19.642C16.2554 18.886 16.0574 18.034 16.0574 17.086C16.0574 16.138 16.2734 15.286 16.7054 14.53C17.1494 13.774 17.7434 13.18 18.4874 12.748C19.2434 12.304 20.0894 12.082 21.0254 12.082C21.9614 12.082 22.8014 12.304 23.5454 12.748C24.2894 13.18 24.8774 13.774 25.3094 14.53C25.7534 15.286 25.9754 16.138 25.9754 17.086H25.2734C25.2734 18.034 25.0694 18.886 24.6614 19.642C24.2654 20.386 23.7194 20.98 23.0234 21.424C22.3274 21.856 21.5414 22.072 20.6654 22.072ZM21.0254 20.452C21.6374 20.452 22.1834 20.308 22.6634 20.02C23.1434 19.72 23.5214 19.318 23.7974 18.814C24.0734 18.298 24.2114 17.722 24.2114 17.086C24.2114 16.438 24.0734 15.862 23.7974 15.358C23.5214 14.842 23.1434 14.44 22.6634 14.152C22.1834 13.852 21.6374 13.702 21.0254 13.702C20.4254 13.702 19.8794 13.852 19.3874 14.152C18.9074 14.44 18.5234 14.842 18.2354 15.358C17.9594 15.862 17.8214 16.438 17.8214 17.086C17.8214 17.722 17.9594 18.298 18.2354 18.814C18.5234 19.318 18.9074 19.72 19.3874 20.02C19.8794 20.308 20.4254 20.452 21.0254 20.452ZM25.0574 22.018C24.7934 22.018 24.5714 21.934 24.3914 21.766C24.2234 21.586 24.1394 21.364 24.1394 21.1V18.346L24.4814 16.438L25.9754 17.086V21.1C25.9754 21.364 25.8854 21.586 25.7054 21.766C25.5374 21.934 25.3214 22.018 25.0574 22.018ZM32.2899 22C31.6899 22 31.1499 21.85 30.6699 21.55C30.1899 21.238 29.8119 20.818 29.5359 20.29C29.2599 19.762 29.1219 19.168 29.1219 18.508V9.922C29.1219 9.658 29.2059 9.442 29.3739 9.274C29.5419 9.106 29.7579 9.022 30.0219 9.022C30.2859 9.022 30.5019 9.106 30.6699 9.274C30.8379 9.442 30.9219 9.658 30.9219 9.922V18.508C30.9219 18.988 31.0539 19.39 31.3179 19.714C31.5819 20.038 31.9059 20.2 32.2899 20.2H32.9019C33.1179 20.2 33.2979 20.284 33.4419 20.452C33.5979 20.62 33.6759 20.836 33.6759 21.1C33.6759 21.364 33.5739 21.58 33.3699 21.748C33.1779 21.916 32.9259 22 32.6139 22H32.2899ZM28.2939 14.062C28.0419 14.062 27.8379 13.99 27.6819 13.846C27.5259 13.702 27.4479 13.522 27.4479 13.306C27.4479 13.066 27.5259 12.874 27.6819 12.73C27.8379 12.586 28.0419 12.514 28.2939 12.514H32.4519C32.7039 12.514 32.9079 12.586 33.0639 12.73C33.2199 12.874 33.2979 13.066 33.2979 13.306C33.2979 13.522 33.2199 13.702 33.0639 13.846C32.9079 13.99 32.7039 14.062 32.4519 14.062H28.2939ZM40.0365 22.072C39.1605 22.072 38.3745 21.856 37.6785 21.424C36.9825 20.98 36.4305 20.386 36.0225 19.642C35.6265 18.886 35.4285 18.034 35.4285 17.086C35.4285 16.138 35.6445 15.286 36.0765 14.53C36.5205 13.774 37.1145 13.18 37.8585 12.748C38.6145 12.304 39.4605 12.082 40.3965 12.082C41.3325 12.082 42.1725 12.304 42.9165 12.748C43.6605 13.18 44.2485 13.774 44.6805 14.53C45.1245 15.286 45.3465 16.138 45.3465 17.086H44.6445C44.6445 18.034 44.4405 18.886 44.0325 19.642C43.6365 20.386 43.0905 20.98 42.3945 21.424C41.6985 21.856 40.9125 22.072 40.0365 22.072ZM40.3965 20.452C41.0085 20.452 41.5545 20.308 42.0345 20.02C42.5145 19.72 42.8925 19.318 43.1685 18.814C43.4445 18.298 43.5825 17.722 43.5825 17.086C43.5825 16.438 43.4445 15.862 43.1685 15.358C42.8925 14.842 42.5145 14.44 42.0345 14.152C41.5545 13.852 41.0085 13.702 40.3965 13.702C39.7965 13.702 39.2505 13.852 38.7585 14.152C38.2785 14.44 37.8945 14.842 37.6065 15.358C37.3305 15.862 37.1925 16.438 37.1925 17.086C37.1925 17.722 37.3305 18.298 37.6065 18.814C37.8945 19.318 38.2785 19.72 38.7585 20.02C39.2505 20.308 39.7965 20.452 40.3965 20.452ZM44.4285 22.018C44.1645 22.018 43.9425 21.934 43.7625 21.766C43.5945 21.586 43.5105 21.364 43.5105 21.1V18.346L43.8525 16.438L45.3465 17.086V21.1C45.3465 21.364 45.2565 21.586 45.0765 21.766C44.9085 21.934 44.6925 22.018 44.4285 22.018ZM50.419 22C49.891 22 49.423 21.856 49.015 21.568C48.607 21.28 48.289 20.89 48.061 20.398C47.833 19.894 47.719 19.318 47.719 18.67V8.842C47.719 8.578 47.803 8.362 47.971 8.194C48.139 8.026 48.355 7.942 48.619 7.942C48.883 7.942 49.099 8.026 49.267 8.194C49.435 8.362 49.519 8.578 49.519 8.842V18.67C49.519 19.114 49.603 19.48 49.771 19.768C49.939 20.056 50.155 20.2 50.419 20.2H50.869C51.109 20.2 51.301 20.284 51.445 20.452C51.601 20.62 51.679 20.836 51.679 21.1C51.679 21.364 51.565 21.58 51.337 21.748C51.109 21.916 50.815 22 50.455 22H50.419ZM54.5735 22C54.3095 22 54.0875 21.916 53.9075 21.748C53.7395 21.568 53.6555 21.346 53.6555 21.082V13.072C53.6555 12.796 53.7395 12.574 53.9075 12.406C54.0875 12.238 54.3095 12.154 54.5735 12.154C54.8495 12.154 55.0715 12.238 55.2395 12.406C55.4075 12.574 55.4915 12.796 55.4915 13.072V21.082C55.4915 21.346 55.4075 21.568 55.2395 21.748C55.0715 21.916 54.8495 22 54.5735 22ZM54.5735 10.552C54.2495 10.552 53.9675 10.438 53.7275 10.21C53.4995 9.97 53.3855 9.688 53.3855 9.364C53.3855 9.04 53.4995 8.764 53.7275 8.536C53.9675 8.296 54.2495 8.176 54.5735 8.176C54.8975 8.176 55.1735 8.296 55.4015 8.536C55.6415 8.764 55.7615 9.04 55.7615 9.364C55.7615 9.688 55.6415 9.97 55.4015 10.21C55.1735 10.438 54.8975 10.552 54.5735 10.552ZM63.0111 22.072C62.1351 22.072 61.3491 21.856 60.6531 21.424C59.9571 20.98 59.4051 20.386 58.9971 19.642C58.6011 18.886 58.4031 18.034 58.4031 17.086C58.4031 16.138 58.6191 15.286 59.0511 14.53C59.4951 13.774 60.0891 13.18 60.8331 12.748C61.5891 12.304 62.4351 12.082 63.3711 12.082C64.3071 12.082 65.1471 12.304 65.8911 12.748C66.6351 13.18 67.2231 13.774 67.6551 14.53C68.0991 15.286 68.3211 16.138 68.3211 17.086H67.6191C67.6191 18.034 67.4151 18.886 67.0071 19.642C66.6111 20.386 66.0651 20.98 65.3691 21.424C64.6731 21.856 63.8871 22.072 63.0111 22.072ZM63.3711 20.452C63.9831 20.452 64.5291 20.308 65.0091 20.02C65.4891 19.72 65.8671 19.318 66.1431 18.814C66.4191 18.298 66.5571 17.722 66.5571 17.086C66.5571 16.438 66.4191 15.862 66.1431 15.358C65.8671 14.842 65.4891 14.44 65.0091 14.152C64.5291 13.852 63.9831 13.702 63.3711 13.702C62.7711 13.702 62.2251 13.852 61.7331 14.152C61.2531 14.44 60.8691 14.842 60.5811 15.358C60.3051 15.862 60.1671 16.438 60.1671 17.086C60.1671 17.722 60.3051 18.298 60.5811 18.814C60.8691 19.318 61.2531 19.72 61.7331 20.02C62.2251 20.308 62.7711 20.452 63.3711 20.452ZM67.4031 22.018C67.1391 22.018 66.9171 21.934 66.7371 21.766C66.5691 21.586 66.4851 21.364 66.4851 21.1V18.346L66.8271 16.438L68.3211 17.086V21.1C68.3211 21.364 68.2311 21.586 68.0511 21.766C67.8831 21.934 67.6671 22.018 67.4031 22.018ZM80.665 22C80.401 22 80.179 21.91 79.999 21.73C79.819 21.55 79.729 21.328 79.729 21.064V7.942H81.601V21.064C81.601 21.328 81.511 21.55 81.331 21.73C81.151 21.91 80.929 22 80.665 22ZM75.841 9.67C75.589 9.67 75.379 9.592 75.211 9.436C75.055 9.268 74.977 9.058 74.977 8.806C74.977 8.554 75.055 8.35 75.211 8.194C75.379 8.026 75.589 7.942 75.841 7.942H85.471C85.723 7.942 85.927 8.026 86.083 8.194C86.251 8.35 86.335 8.554 86.335 8.806C86.335 9.058 86.251 9.268 86.083 9.436C85.927 9.592 85.723 9.67 85.471 9.67H75.841ZM86.5958 15.844C86.5958 15.124 86.7698 14.482 87.1178 13.918C87.4778 13.342 87.9578 12.886 88.5578 12.55C89.1578 12.214 89.8178 12.046 90.5378 12.046C91.2578 12.046 91.7918 12.166 92.1398 12.406C92.4998 12.634 92.6378 12.91 92.5538 13.234C92.5178 13.402 92.4458 13.534 92.3378 13.63C92.2418 13.714 92.1278 13.768 91.9958 13.792C91.8638 13.816 91.7198 13.81 91.5638 13.774C90.7958 13.618 90.1058 13.606 89.4938 13.738C88.8818 13.87 88.3958 14.116 88.0358 14.476C87.6878 14.836 87.5138 15.292 87.5138 15.844H86.5958ZM86.6138 22C86.3258 22 86.1038 21.928 85.9478 21.784C85.7918 21.628 85.7138 21.4 85.7138 21.1V13.054C85.7138 12.766 85.7918 12.544 85.9478 12.388C86.1038 12.232 86.3258 12.154 86.6138 12.154C86.9138 12.154 87.1358 12.232 87.2798 12.388C87.4358 12.532 87.5138 12.754 87.5138 13.054V21.1C87.5138 21.388 87.4358 21.61 87.2798 21.766C87.1358 21.922 86.9138 22 86.6138 22ZM95.5657 22C95.3017 22 95.0797 21.916 94.8997 21.748C94.7317 21.568 94.6477 21.346 94.6477 21.082V13.072C94.6477 12.796 94.7317 12.574 94.8997 12.406C95.0797 12.238 95.3017 12.154 95.5657 12.154C95.8417 12.154 96.0637 12.238 96.2317 12.406C96.3997 12.574 96.4837 12.796 96.4837 13.072V21.082C96.4837 21.346 96.3997 21.568 96.2317 21.748C96.0637 21.916 95.8417 22 95.5657 22ZM95.5657 10.552C95.2417 10.552 94.9597 10.438 94.7197 10.21C94.4917 9.97 94.3777 9.688 94.3777 9.364C94.3777 9.04 94.4917 8.764 94.7197 8.536C94.9597 8.296 95.2417 8.176 95.5657 8.176C95.8897 8.176 96.1657 8.296 96.3937 8.536C96.6337 8.764 96.7537 9.04 96.7537 9.364C96.7537 9.688 96.6337 9.97 96.3937 10.21C96.1657 10.438 95.8897 10.552 95.5657 10.552ZM100.961 22C100.733 22 100.529 21.916 100.349 21.748C100.169 21.58 100.079 21.358 100.079 21.082V12.208C100.079 11.344 100.247 10.594 100.583 9.958C100.931 9.322 101.411 8.83 102.023 8.482C102.635 8.122 103.343 7.942 104.147 7.942C104.411 7.942 104.627 8.02 104.795 8.176C104.975 8.332 105.065 8.53 105.065 8.77C105.065 8.998 104.975 9.196 104.795 9.364C104.627 9.52 104.411 9.598 104.147 9.598C103.703 9.598 103.313 9.7 102.977 9.904C102.641 10.108 102.377 10.39 102.185 10.75C102.005 11.11 101.915 11.536 101.915 12.028V21.082C101.915 21.358 101.831 21.58 101.663 21.748C101.495 21.916 101.261 22 100.961 22ZM99.3053 14.062C99.0533 14.062 98.8493 13.99 98.6933 13.846C98.5373 13.702 98.4593 13.522 98.4593 13.306C98.4593 13.066 98.5373 12.874 98.6933 12.73C98.8493 12.586 99.0533 12.514 99.3053 12.514H103.751C104.003 12.514 104.207 12.586 104.363 12.73C104.519 12.874 104.597 13.066 104.597 13.306C104.597 13.522 104.519 13.702 104.363 13.846C104.207 13.99 104.003 14.062 103.751 14.062H99.3053ZM110.621 22.072C109.649 22.072 108.791 21.862 108.047 21.442C107.303 21.01 106.715 20.422 106.283 19.678C105.863 18.922 105.653 18.058 105.653 17.086C105.653 16.102 105.863 15.238 106.283 14.494C106.715 13.738 107.303 13.15 108.047 12.73C108.791 12.298 109.649 12.082 110.621 12.082C111.581 12.082 112.433 12.298 113.177 12.73C113.921 13.15 114.503 13.738 114.923 14.494C115.355 15.238 115.571 16.102 115.571 17.086C115.571 18.058 115.361 18.922 114.941 19.678C114.521 20.422 113.939 21.01 113.195 21.442C112.451 21.862 111.593 22.072 110.621 22.072ZM110.621 20.452C111.245 20.452 111.797 20.308 112.277 20.02C112.757 19.732 113.129 19.336 113.393 18.832C113.669 18.328 113.807 17.746 113.807 17.086C113.807 16.426 113.669 15.844 113.393 15.34C113.129 14.824 112.757 14.422 112.277 14.134C111.797 13.846 111.245 13.702 110.621 13.702C109.997 13.702 109.445 13.846 108.965 14.134C108.485 14.422 108.107 14.824 107.831 15.34C107.555 15.844 107.417 16.426 107.417 17.086C107.417 17.746 107.555 18.328 107.831 18.832C108.107 19.336 108.485 19.732 108.965 20.02C109.445 20.308 109.997 20.452 110.621 20.452ZM126.62 22.018C126.356 22.018 126.134 21.934 125.954 21.766C125.786 21.586 125.702 21.364 125.702 21.1V16.672C125.702 15.988 125.576 15.43 125.324 14.998C125.072 14.566 124.73 14.248 124.298 14.044C123.878 13.828 123.392 13.72 122.84 13.72C122.336 13.72 121.88 13.822 121.472 14.026C121.064 14.23 120.74 14.506 120.5 14.854C120.26 15.19 120.14 15.58 120.14 16.024H119.006C119.006 15.268 119.186 14.596 119.546 14.008C119.918 13.408 120.422 12.934 121.058 12.586C121.694 12.238 122.408 12.064 123.2 12.064C124.028 12.064 124.766 12.244 125.414 12.604C126.074 12.952 126.59 13.468 126.962 14.152C127.346 14.836 127.538 15.676 127.538 16.672V21.1C127.538 21.364 127.448 21.586 127.268 21.766C127.1 21.934 126.884 22.018 126.62 22.018ZM119.222 22.018C118.958 22.018 118.736 21.934 118.556 21.766C118.388 21.586 118.304 21.364 118.304 21.1V13.072C118.304 12.796 118.388 12.574 118.556 12.406C118.736 12.238 118.958 12.154 119.222 12.154C119.498 12.154 119.72 12.238 119.888 12.406C120.056 12.574 120.14 12.796 120.14 13.072V21.1C120.14 21.364 120.056 21.586 119.888 21.766C119.72 21.934 119.498 22.018 119.222 22.018ZM135.037 22.072C134.065 22.072 133.207 21.862 132.463 21.442C131.719 21.01 131.131 20.422 130.699 19.678C130.279 18.922 130.069 18.058 130.069 17.086C130.069 16.102 130.279 15.238 130.699 14.494C131.131 13.738 131.719 13.15 132.463 12.73C133.207 12.298 134.065 12.082 135.037 12.082C135.997 12.082 136.849 12.298 137.593 12.73C138.337 13.15 138.919 13.738 139.339 14.494C139.771 15.238 139.987 16.102 139.987 17.086C139.987 18.058 139.777 18.922 139.357 19.678C138.937 20.422 138.355 21.01 137.611 21.442C136.867 21.862 136.009 22.072 135.037 22.072ZM135.037 20.452C135.661 20.452 136.213 20.308 136.693 20.02C137.173 19.732 137.545 19.336 137.809 18.832C138.085 18.328 138.223 17.746 138.223 17.086C138.223 16.426 138.085 15.844 137.809 15.34C137.545 14.824 137.173 14.422 136.693 14.134C136.213 13.846 135.661 13.702 135.037 13.702C134.413 13.702 133.861 13.846 133.381 14.134C132.901 14.422 132.523 14.824 132.247 15.34C131.971 15.844 131.833 16.426 131.833 17.086C131.833 17.746 131.971 18.328 132.247 18.832C132.523 19.336 132.901 19.732 133.381 20.02C133.861 20.308 134.413 20.452 135.037 20.452ZM145.505 21.982C145.133 21.982 144.845 21.784 144.641 21.388L140.825 13.342C140.729 13.138 140.717 12.94 140.789 12.748C140.873 12.544 141.029 12.388 141.257 12.28C141.461 12.172 141.665 12.154 141.869 12.226C142.085 12.298 142.247 12.436 142.355 12.64L145.919 20.326H145.055L148.583 12.64C148.691 12.436 148.853 12.298 149.069 12.226C149.297 12.154 149.525 12.172 149.753 12.28C149.969 12.376 150.113 12.526 150.185 12.73C150.257 12.934 150.245 13.138 150.149 13.342L146.333 21.388C146.153 21.784 145.877 21.982 145.505 21.982ZM155.788 22.072C154.912 22.072 154.126 21.856 153.43 21.424C152.734 20.98 152.182 20.386 151.774 19.642C151.378 18.886 151.18 18.034 151.18 17.086C151.18 16.138 151.396 15.286 151.828 14.53C152.272 13.774 152.866 13.18 153.61 12.748C154.366 12.304 155.212 12.082 156.148 12.082C157.084 12.082 157.924 12.304 158.668 12.748C159.412 13.18 160 13.774 160.432 14.53C160.876 15.286 161.098 16.138 161.098 17.086H160.396C160.396 18.034 160.192 18.886 159.784 19.642C159.388 20.386 158.842 20.98 158.146 21.424C157.45 21.856 156.664 22.072 155.788 22.072ZM156.148 20.452C156.76 20.452 157.306 20.308 157.786 20.02C158.266 19.72 158.644 19.318 158.92 18.814C159.196 18.298 159.334 17.722 159.334 17.086C159.334 16.438 159.196 15.862 158.92 15.358C158.644 14.842 158.266 14.44 157.786 14.152C157.306 13.852 156.76 13.702 156.148 13.702C155.548 13.702 155.002 13.852 154.51 14.152C154.03 14.44 153.646 14.842 153.358 15.358C153.082 15.862 152.944 16.438 152.944 17.086C152.944 17.722 153.082 18.298 153.358 18.814C153.646 19.318 154.03 19.72 154.51 20.02C155.002 20.308 155.548 20.452 156.148 20.452ZM160.18 22.018C159.916 22.018 159.694 21.934 159.514 21.766C159.346 21.586 159.262 21.364 159.262 21.1V18.346L159.604 16.438L161.098 17.086V21.1C161.098 21.364 161.008 21.586 160.828 21.766C160.66 21.934 160.444 22.018 160.18 22.018Z" fill="#25282B"/>
</svg>
