<svg width="486" height="550" viewBox="0 0 486 550" fill="none" xmlns="http://www.w3.org/2000/svg">
<path fill-rule="evenodd" clip-rule="evenodd" d="M266.928 0.414105C329.01 3.369 394.314 26.4807 432.22 74.5986C467.268 119.089 443.719 182.263 453.73 237.543C461.779 281.986 491.818 321.408 485.002 366.047C477.451 415.501 453.376 462.695 414.402 495.109C373.583 529.059 319.519 557.584 266.928 547.419C215.955 537.567 200.076 472.952 156.527 445.265C108.877 414.971 25.8029 431.574 4.02243 380.276C-17.3143 330.022 52.5135 285.879 66.494 233.216C81.9803 174.882 49.7937 104.408 89.5026 58.2864C130.642 10.5036 203.088 -2.62447 266.928 0.414105Z" fill="#FDC435"/>
</svg>
